<?xml version="1.0" encoding="UTF-8"?>
<svg xmlns="http://www.w3.org/2000/svg" xmlns:xlink="http://www.w3.org/1999/xlink" viewBox="0 0 32 32" version="1.1" width="64px" height="64px">
<g id="surface1">
<path style=" " d="M 16 4 C 13.835938 4 12.34375 4.71875 12.34375 4.71875 L 12.125 4.8125 L 11.96875 5.03125 C 11.96875 5.03125 10.597656 6.949219 10.03125 9.8125 L 10 9.90625 L 10 10 C 10 10.457031 10.078125 11.300781 10.375 12.5625 C 10.671875 13.824219 11.179688 15.460938 12.0625 17.25 C 13.824219 20.828125 17.078125 25.074219 22.875 28.375 L 23.96875 29 L 24.34375 27.78125 L 25.96875 22.28125 L 26.1875 21.46875 L 25.4375 21.09375 C 23.109375 19.984375 21.34375 18.644531 19.875 17.25 C 20.605469 15.625 21.230469 14.03125 21.53125 12.84375 C 21.890625 11.421875 22 10.527344 22 10 L 22 9.90625 L 21.96875 9.8125 C 21.402344 6.949219 20.03125 5.03125 20.03125 5.03125 L 19.875 4.8125 L 19.65625 4.71875 C 19.65625 4.71875 18.164063 4 16 4 Z M 16 6 C 16.804688 6 17.421875 6.109375 17.84375 6.21875 C 17.804688 6.503906 17.761719 6.824219 17.6875 7.1875 C 17.132813 7.074219 16.570313 7 16 7 C 15.433594 7 14.867188 7.042969 14.3125 7.15625 C 14.261719 6.847656 14.242188 6.558594 14.21875 6.3125 C 14.671875 6.160156 14.882813 6 16 6 Z M 12.65625 8.21875 C 13.484375 12.035156 15.945313 18.367188 23.8125 22.46875 L 22.78125 25.90625 C 18.089844 22.9375 15.367188 19.371094 13.875 16.34375 C 13.066406 14.707031 12.578125 13.226563 12.3125 12.09375 C 12.054688 10.996094 12.003906 10.238281 12 10.0625 C 12.160156 9.300781 12.429688 8.78125 12.65625 8.21875 Z M 19.46875 8.34375 C 19.65625 8.839844 19.855469 9.386719 20 10.0625 C 19.996094 10.171875 19.914063 11.109375 19.59375 12.375 C 19.371094 13.265625 18.828125 14.496094 18.34375 15.6875 C 17.910156 15.171875 17.535156 14.632813 17.1875 14.125 C 18.402344 11.996094 19.078125 9.960938 19.46875 8.34375 Z M 16 9 C 16.417969 9 16.824219 9.042969 17.21875 9.125 C 16.933594 10.042969 16.527344 11.0625 16 12.125 C 15.449219 11.042969 15.015625 10.035156 14.75 9.125 C 15.152344 9.039063 15.574219 9 16 9 Z M 11.03125 18.46875 C 9.8125 19.445313 8.457031 20.191406 6.5625 21.09375 L 5.8125 21.46875 L 8.03125 29 L 9.125 28.375 C 11.792969 26.855469 13.484375 25.503906 14.90625 23.96875 C 14.4375 23.460938 13.996094 22.949219 13.59375 22.4375 C 12.457031 23.699219 11.160156 24.800781 9.21875 26 L 8.1875 22.53125 C 9.703125 21.785156 10.917969 21.105469 12.03125 20.25 C 11.65625 19.65625 11.332031 19.042969 11.03125 18.46875 Z "/>
</g>
</svg>
