<?xml version="1.0" encoding="UTF-8"?>
<svg xmlns="http://www.w3.org/2000/svg" xmlns:xlink="http://www.w3.org/1999/xlink" viewBox="0 0 32 32" version="1.1" width="64px" height="64px">
<g id="surface1">
<path style=" " d="M 3 4 L 3 22 L 8 22 L 8 27.09375 L 9.625 25.78125 L 14.34375 22 L 29 22 L 29 4 Z M 5 6 L 27 6 L 27 20 L 13.65625 20 L 13.375 20.21875 L 10 22.90625 L 10 20 L 5 20 Z M 16 8 C 13.800781 8 13 9.800781 13 11 L 15 11 C 15 10.5 15.199219 10 16 10 C 16.800781 10 17 10.5 17 11 C 17 11.5 16.488281 11.804688 16.1875 11.90625 L 16 11.90625 C 15.398438 12.105469 15 12.707031 15 13.40625 L 15 15 L 17 15 L 17 13.6875 C 18 13.289063 19 12.300781 19 11 C 19 9.800781 18.199219 8 16 8 Z M 15 16 L 15 18 L 17 18 L 17 16 Z "/>
</g>
</svg>
