<?xml version="1.0" encoding="UTF-8"?>
<svg xmlns="http://www.w3.org/2000/svg" xmlns:xlink="http://www.w3.org/1999/xlink" viewBox="0 0 32 32" version="1.1" width="50px" height="50px">
<g id="surface1">
<path style=" " d="M 2 5 L 2 25 L 7 25 L 7 30.078125 L 13.351563 25 L 30 25 L 30 5 Z M 4 7 L 28 7 L 28 23 L 12.648438 23 L 9 25.917969 L 9 23 L 4 23 Z M 6.457031 12.042969 L 5.042969 13.457031 L 6.585938 15 L 5.042969 16.542969 L 6.457031 17.957031 L 8 16.414063 L 9.542969 17.957031 L 10.957031 16.542969 L 9.414063 15 L 10.957031 13.457031 L 9.542969 12.042969 L 8 13.585938 Z M 14.457031 12.042969 L 13.042969 13.457031 L 14.585938 15 L 13.042969 16.542969 L 14.457031 17.957031 L 16 16.414063 L 17.542969 17.957031 L 18.957031 16.542969 L 17.414063 15 L 18.957031 13.457031 L 17.542969 12.042969 L 16 13.585938 Z M 22.457031 12.042969 L 21.042969 13.457031 L 22.585938 15 L 21.042969 16.542969 L 22.457031 17.957031 L 24 16.414063 L 25.542969 17.957031 L 26.957031 16.542969 L 25.414063 15 L 26.957031 13.457031 L 25.542969 12.042969 L 24 13.585938 Z "/>
</g>
</svg>
