<?xml version="1.0" encoding="UTF-8"?>
<svg xmlns="http://www.w3.org/2000/svg" xmlns:xlink="http://www.w3.org/1999/xlink" viewBox="0 0 32 32" version="1.1" width="64px" height="64px">
<g id="surface1">
<path style=" " d="M 9 2 L 9 25 C 9 25.523438 9.183594 26.058594 9.5625 26.4375 C 9.941406 26.816406 10.476563 27 11 27 L 21 27 C 21.523438 27 22.058594 26.816406 22.4375 26.4375 C 22.816406 26.058594 23 25.523438 23 25 L 23 7 C 23 6.476563 22.816406 5.941406 22.4375 5.5625 C 22.058594 5.183594 21.523438 5 21 5 L 11 5 L 11 2 Z M 11 7 L 21 7 L 21 11 L 11 11 Z M 11 13 L 21 13 L 21 25 L 11 25 Z M 12 15 L 12 17 L 14 17 L 14 15 Z M 15 15 L 15 17 L 17 17 L 17 15 Z M 18 15 L 18 17 L 20 17 L 20 15 Z M 12 18 L 12 20 L 14 20 L 14 18 Z M 15 18 L 15 20 L 17 20 L 17 18 Z M 18 18 L 18 20 L 20 20 L 20 18 Z M 12 21 L 12 23 L 14 23 L 14 21 Z M 15 21 L 15 23 L 17 23 L 17 21 Z M 18 21 L 18 23 L 20 23 L 20 21 Z "/>
</g>
</svg>
