<?xml version="1.0" encoding="UTF-8"?>
<svg xmlns="http://www.w3.org/2000/svg" xmlns:xlink="http://www.w3.org/1999/xlink" viewBox="0 0 32 32" version="1.1" width="64px" height="64px">
<g id="surface1">
<path style=" " d="M 17 5 L 17 15 L 19 15 L 19 17.875 L 20.5625 16.84375 L 23.3125 15 L 30 15 L 30 5 Z M 19 7 L 28 7 L 28 13 L 22.6875 13 L 22.4375 13.15625 L 21 14.125 L 21 13 L 19 13 Z M 10 8 C 6.699219 8 4 10.699219 4 14 C 4 15.984375 4.976563 17.75 6.46875 18.84375 C 3.832031 20.152344 2 22.863281 2 26 L 4 26 C 4 22.675781 6.675781 20 10 20 C 13.324219 20 16 22.675781 16 26 L 18 26 C 18 22.863281 16.167969 20.152344 13.53125 18.84375 C 15.023438 17.75 16 15.984375 16 14 C 16 10.699219 13.300781 8 10 8 Z M 10 10 C 12.222656 10 14 11.777344 14 14 C 14 16.222656 12.222656 18 10 18 C 7.777344 18 6 16.222656 6 14 C 6 11.777344 7.777344 10 10 10 Z "/>
</g>
</svg>
