<?xml version="1.0" encoding="UTF-8"?>
<svg xmlns="http://www.w3.org/2000/svg" xmlns:xlink="http://www.w3.org/1999/xlink" viewBox="0 0 32 32" version="1.1" width="64px" height="64px">
<g id="surface1">
<path style=" " d="M 16 3 C 14.476563 3 13.304688 4.207031 13.125 5.6875 C 10.707031 6.789063 9 9.175781 9 12 L 9 26 L 11 26 L 11 12 C 11 9.816406 12.402344 7.96875 14.34375 7.28125 L 15 7.0625 L 15 6 C 15 5.433594 15.433594 5 16 5 C 16.566406 5 17 5.433594 17 6 L 17 7.0625 L 17.65625 7.28125 C 19.59375 7.96875 21 9.816406 21 12 L 21 27 L 8 27 L 8 29 L 24 29 L 24 27 L 23 27 L 23 12 C 23 9.175781 21.292969 6.789063 18.875 5.6875 C 18.695313 4.207031 17.523438 3 16 3 Z M 16 11 C 14.894531 11 14 11.960938 14 13.34375 C 14 15.398438 15.140625 15.316406 15.625 17.5625 C 15.988281 19.238281 14.851563 19.453125 15.28125 20.78125 C 15.628906 21.847656 17.3125 23 17.3125 23 C 17.3125 23 16.808594 21.914063 16.5 20.90625 C 16.242188 20.058594 17.367188 19.148438 17.15625 17.71875 C 16.847656 15.613281 18 15.464844 18 13.34375 C 18 11.960938 17.105469 11 16 11 Z "/>
</g>
</svg>
