<?xml version="1.0" encoding="UTF-8"?>
<svg xmlns="http://www.w3.org/2000/svg" xmlns:xlink="http://www.w3.org/1999/xlink" viewBox="0 0 32 32" version="1.1" width="64px" height="64px">
<g id="surface1">
<path style=" " d="M 9 4 C 6.25 4 4 6.25 4 9 C 4 10.515625 4.707031 11.863281 5.78125 12.78125 C 3.53125 13.949219 2 16.300781 2 19 L 4 19 C 4 16.226563 6.226563 14 9 14 C 11.773438 14 14 16.226563 14 19 L 16 19 C 16 16.300781 14.46875 13.949219 12.21875 12.78125 C 13.292969 11.863281 14 10.515625 14 9 C 14 6.25 11.75 4 9 4 Z M 16 19 L 18 19 C 18 16.226563 20.226563 14 23 14 C 25.773438 14 28 16.226563 28 19 L 30 19 C 30 16.300781 28.46875 13.949219 26.21875 12.78125 C 27.292969 11.863281 28 10.515625 28 9 C 28 6.25 25.75 4 23 4 C 20.25 4 18 6.25 18 9 C 18 10.515625 18.707031 11.863281 19.78125 12.78125 C 17.53125 13.949219 16 16.300781 16 19 Z M 9 6 C 10.667969 6 12 7.332031 12 9 C 12 10.667969 10.667969 12 9 12 C 7.332031 12 6 10.667969 6 9 C 6 7.332031 7.332031 6 9 6 Z M 23 6 C 24.667969 6 26 7.332031 26 9 C 26 10.667969 24.667969 12 23 12 C 21.332031 12 20 10.667969 20 9 C 20 7.332031 21.332031 6 23 6 Z M 6.28125 20.28125 L 3.28125 23.28125 L 2.59375 24 L 3.28125 24.71875 L 6.28125 27.71875 L 7.71875 26.28125 L 6.4375 25 L 11 25 L 11 23 L 6.4375 23 L 7.71875 21.71875 Z M 25.71875 20.28125 L 24.28125 21.71875 L 25.5625 23 L 21 23 L 21 25 L 25.5625 25 L 24.28125 26.28125 L 25.71875 27.71875 L 28.71875 24.71875 L 29.40625 24 L 28.71875 23.28125 Z M 13 23 L 13 25 L 15 25 L 15 23 Z M 17 23 L 17 25 L 19 25 L 19 23 Z "/>
</g>
</svg>
