<?xml version="1.0" encoding="UTF-8"?>
<svg xmlns="http://www.w3.org/2000/svg" xmlns:xlink="http://www.w3.org/1999/xlink" viewBox="0 0 32 32" version="1.1" width="64px" height="64px">
<g id="surface1">
<path style=" " d="M 30 4.65625 L 28.71875 5.03125 L 5.8125 12 L 2 12 L 2 20 L 5.8125 20 L 7.78125 20.59375 L 7.75 20.6875 L 7.75 20.71875 C 7.109375 22.832031 8.296875 25.179688 10.5 25.84375 C 10.507813 25.847656 10.523438 25.839844 10.53125 25.84375 C 12.652344 26.488281 15.003906 25.316406 15.65625 23.09375 L 15.6875 23 L 28.71875 26.96875 L 30 27.34375 Z M 28 7.34375 L 28 24.65625 L 6.28125 18.03125 L 6.15625 18 L 4 18 L 4 14 L 6.15625 14 L 6.28125 13.96875 Z M 9.6875 21.1875 L 13.78125 22.40625 L 13.75 22.5 L 13.75 22.53125 C 13.40625 23.699219 12.164063 24.273438 11.09375 23.9375 C 9.925781 23.59375 9.320313 22.382813 9.65625 21.3125 L 9.65625 21.28125 Z "/>
</g>
</svg>
