<?xml version="1.0" encoding="UTF-8"?>
<svg xmlns="http://www.w3.org/2000/svg" xmlns:xlink="http://www.w3.org/1999/xlink" viewBox="0 0 32 32" version="1.1" width="64px" height="64px">
<g id="surface1">
<path style=" " d="M 9.0625 4.71875 L 7.65625 6.15625 L 9.78125 8.1875 L 8.75 10.25 L 9.34375 10.75 L 10.875 12.0625 C 9.820313 12.308594 8.761719 12.453125 7.8125 12.59375 C 6.929688 12.722656 6.152344 12.839844 5.4375 13.15625 C 5.078125 13.3125 4.714844 13.523438 4.4375 13.875 C 4.160156 14.226563 4 14.699219 4 15.15625 C 4 15.816406 4.398438 16.347656 4.8125 16.6875 C 5.226563 17.027344 5.710938 17.253906 6.25 17.4375 C 6.640625 17.570313 7.066406 17.664063 7.5 17.75 L 7.125 18.90625 L 5.21875 21.40625 L 6.78125 22.59375 L 8.78125 20 L 8.90625 19.875 L 8.9375 19.6875 L 9.5 18 C 9.625 18.003906 9.75 18 9.875 18 C 9.917969 18 9.957031 18 10 18 L 10 21.65625 L 7.25 26.5 L 9 27.5 L 11.875 22.4375 L 12 22.1875 L 12 17.75 C 12.449219 17.628906 12.835938 17.441406 13.1875 17.21875 C 13.074219 17.773438 13 18.378906 13 19 C 13 20.03125 13.023438 21.324219 13.34375 22.5 C 13.503906 23.089844 13.730469 23.671875 14.15625 24.15625 C 14.582031 24.640625 15.269531 25 16 25 C 16.730469 25 17.417969 24.640625 17.84375 24.15625 C 18.269531 23.671875 18.496094 23.089844 18.65625 22.5 C 18.976563 21.324219 19 20.03125 19 19 C 19 18.378906 18.925781 17.773438 18.8125 17.21875 C 19.15625 17.4375 19.566406 17.59375 20 17.71875 L 20 22.1875 L 20.125 22.4375 L 23 27.5 L 24.75 26.5 L 22 21.65625 L 22 18 C 22.042969 18 22.082031 18 22.125 18 C 22.253906 18 22.371094 18.003906 22.5 18 L 23.0625 19.6875 L 23.09375 19.875 L 23.21875 20 L 25.21875 22.59375 L 26.78125 21.40625 L 24.875 18.90625 L 24.5 17.75 C 24.933594 17.664063 25.359375 17.570313 25.75 17.4375 C 26.289063 17.253906 26.773438 17.027344 27.1875 16.6875 C 27.601563 16.347656 28 15.816406 28 15.15625 C 28 14.699219 27.839844 14.226563 27.5625 13.875 C 27.285156 13.523438 26.921875 13.3125 26.5625 13.15625 C 25.847656 12.839844 25.070313 12.722656 24.1875 12.59375 C 23.238281 12.453125 22.179688 12.308594 21.125 12.0625 L 22.65625 10.75 L 23.25 10.25 L 22.21875 8.1875 L 24.34375 6.15625 L 22.9375 4.71875 L 20.3125 7.28125 L 19.78125 7.78125 L 20.09375 8.4375 L 20.75 9.75 L 19 11.28125 L 19 10.71875 C 19 9.832031 18.621094 9.011719 18 8.5625 C 18 7.957031 17.832031 7.171875 17 7.03125 L 17 5 L 15 5 L 15 7.0625 C 14.140625 7.207031 14 7.949219 14 8.5625 C 13.378906 9.011719 13 9.832031 13 10.71875 L 13 11.28125 L 11.25 9.75 L 11.90625 8.4375 L 12.21875 7.78125 L 11.6875 7.28125 Z M 16 10 C 16.4375 10 16.710938 10.082031 16.8125 10.15625 C 16.914063 10.230469 17 10.28125 17 10.71875 L 17 12 C 17 12.539063 17 13.050781 17.03125 13.53125 C 16.933594 13.707031 16.679688 14 16 14 C 15.277344 14 15.019531 13.667969 14.9375 13.5 C 14.96875 13.023438 15 12.539063 15 12 L 15 10.71875 C 15 10.28125 15.054688 10.230469 15.15625 10.15625 C 15.257813 10.082031 15.5625 10 16 10 Z M 12.75 13.46875 C 12.660156 14.089844 12.65625 14.988281 12.46875 15.25 C 12.125 15.726563 11.511719 16 9.875 16 C 8.804688 16 7.691406 15.832031 6.90625 15.5625 C 6.515625 15.425781 6.199219 15.265625 6.0625 15.15625 C 6.027344 15.128906 6.011719 15.136719 6 15.125 C 6.003906 15.117188 6.054688 15.042969 6.21875 14.96875 C 6.546875 14.824219 7.238281 14.6875 8.09375 14.5625 C 9.371094 14.375 11.050781 14.042969 12.75 13.46875 Z M 19.25 13.46875 C 20.949219 14.042969 22.628906 14.375 23.90625 14.5625 C 24.761719 14.6875 25.453125 14.824219 25.78125 14.96875 C 25.945313 15.042969 25.996094 15.117188 26 15.125 C 25.988281 15.136719 25.972656 15.128906 25.9375 15.15625 C 25.800781 15.265625 25.484375 15.425781 25.09375 15.5625 C 24.308594 15.832031 23.195313 16 22.125 16 C 20.488281 16 19.875 15.726563 19.53125 15.25 C 19.34375 14.988281 19.339844 14.089844 19.25 13.46875 Z M 15.65625 15.96875 C 15.769531 15.980469 15.878906 16 16 16 C 16.121094 16 16.230469 15.980469 16.34375 15.96875 C 16.613281 16.640625 17 17.855469 17 19 C 17 19.976563 16.941406 21.179688 16.71875 22 C 16.605469 22.410156 16.464844 22.703125 16.34375 22.84375 C 16.222656 22.984375 16.183594 23 16 23 C 15.816406 23 15.777344 22.984375 15.65625 22.84375 C 15.535156 22.703125 15.394531 22.410156 15.28125 22 C 15.058594 21.179688 15 19.976563 15 19 C 15 17.851563 15.386719 16.640625 15.65625 15.96875 Z "/>
</g>
</svg>
