<?xml version="1.0" encoding="UTF-8"?>
<svg xmlns="http://www.w3.org/2000/svg" xmlns:xlink="http://www.w3.org/1999/xlink" viewBox="0 0 32 32" version="1.1" width="64px" height="64px">
<g id="surface1">
<path style=" " d="M 9.5 3.8125 L 9 4.28125 C 9 4.28125 5 7.925781 5 12.5625 C 5 17.847656 9.71875 20.15625 9.71875 20.15625 L 10.8125 20.6875 L 11.125 19.5 C 11.125 19.5 11.382813 18.421875 12.375 17.28125 C 13.367188 16.140625 15.007813 15 18 15 C 22.457031 15 25.566406 17.394531 26.53125 18.1875 C 25.761719 19.265625 22.894531 23 18 23 C 15.769531 23 14.277344 22.515625 13.375 22.125 C 14.664063 21.117188 16 20.546875 17.21875 20.21875 C 19.789063 19.527344 21.78125 19.96875 21.78125 19.96875 L 22.21875 18.03125 C 22.21875 18.03125 21.59375 17.878906 20.59375 17.84375 C 19.59375 17.808594 18.207031 17.875 16.6875 18.28125 C 13.648438 19.097656 9.992188 21.355469 7.625 26.59375 L 9.4375 27.40625 C 10.152344 25.820313 10.972656 24.582031 11.84375 23.59375 C 12.796875 24.078125 14.953125 25 18 25 C 24.890625 25 28.84375 18.53125 28.84375 18.53125 L 29.28125 17.84375 L 28.6875 17.28125 C 28.6875 17.28125 24.148438 13 18 13 C 16.898438 13 15.960938 13.164063 15.09375 13.40625 C 15.238281 12.53125 15.308594 11.503906 15.03125 10.21875 C 14.113281 5.929688 10.125 4.09375 10.125 4.09375 Z M 9.875 6.34375 C 10.660156 6.800781 12.5 7.992188 13.0625 10.625 C 13.34375 11.941406 13.242188 12.972656 13.0625 13.65625 C 12.882813 14.339844 12.6875 14.59375 12.6875 14.59375 C 12.019531 15.035156 11.3125 15.46875 10.875 15.96875 C 10.769531 16.089844 10.683594 16.222656 10.59375 16.34375 C 10.535156 15.753906 10.492188 15.160156 10.5 14.59375 C 10.515625 13.136719 10.65625 11.96875 10.65625 11.96875 L 8.6875 11.6875 C 8.6875 11.6875 8.519531 12.96875 8.5 14.5625 C 8.492188 15.253906 8.519531 16.023438 8.59375 16.78125 C 7.777344 15.953125 7 14.65625 7 12.5625 C 7 9.652344 9.148438 7.140625 9.875 6.34375 Z "/>
</g>
</svg>
