<?xml version="1.0" encoding="UTF-8"?>
<svg xmlns="http://www.w3.org/2000/svg" xmlns:xlink="http://www.w3.org/1999/xlink" viewBox="0 0 32 32" version="1.1" width="64px" height="64px">
<g id="surface1">
<path style=" " d="M 24.21875 2.9375 L 19.65625 11.5 C 19.175781 11.171875 18.609375 10.984375 17.9375 11 C 17.289063 10.367188 16.417969 10 15.5 10 C 14.335938 10 13.265625 10.589844 12.625 11.5 C 12.144531 11.183594 11.589844 11 11 11 C 9.695313 11 8.566406 11.832031 8.15625 13 C 6.457031 12.894531 5 14.289063 5 16 L 3 16 L 3 17 C 3 17.121094 3.152344 29 16 29 C 28.847656 29 29 17.121094 29 17 L 29 16 L 27 16 C 27 14.648438 26.105469 13.5 24.875 13.125 C 24.519531 11.953125 23.453125 11.113281 22.1875 11.03125 L 26 3.875 Z M 15.5 12 C 15.980469 12 16.4375 12.226563 16.71875 12.625 L 17.125 13.1875 L 17.78125 13.03125 C 17.875 13.007813 17.933594 13 18 13 C 18.550781 13 19 13.449219 19 14 L 21 14 C 21 13.449219 21.449219 13 22 13 C 22.550781 13 23 13.449219 23 14 L 23 15 L 24 15 C 24.550781 15 25 15.449219 25 16 L 7 16 C 7 15.449219 7.449219 15 8 15 C 8.144531 15 8.277344 15.039063 8.46875 15.15625 L 9.0625 15.5 L 10.125 14.75 L 10.03125 14.125 C 10.023438 14.082031 10 14.046875 10 14 C 10 13.449219 10.449219 13 11 13 C 11.359375 13 11.691406 13.207031 11.875 13.53125 L 12.1875 14.09375 L 12.875 14.03125 L 13.875 14 L 14.03125 13.1875 C 14.171875 12.492188 14.789063 12 15.5 12 Z M 13.5 16 C 13.777344 16 14 15.777344 14 15.5 C 14 15.222656 13.777344 15 13.5 15 C 13.222656 15 13 15.222656 13 15.5 C 13 15.777344 13.222656 16 13.5 16 Z M 20.5 16 C 20.777344 16 21 15.777344 21 15.5 C 21 15.222656 20.777344 15 20.5 15 C 20.222656 15 20 15.222656 20 15.5 C 20 15.777344 20.222656 16 20.5 16 Z M 15.5 14 C 15.222656 14 15 14.222656 15 14.5 C 15 14.777344 15.222656 15 15.5 15 C 15.777344 15 16 14.777344 16 14.5 C 16 14.222656 15.777344 14 15.5 14 Z M 5.09375 18 L 26.9375 18 C 26.609375 20.546875 24.878906 27 16 27 C 7.121094 27 5.421875 20.546875 5.09375 18 Z "/>
</g>
</svg>
