<?xml version="1.0" encoding="UTF-8"?>
<svg xmlns="http://www.w3.org/2000/svg" xmlns:xlink="http://www.w3.org/1999/xlink" viewBox="0 0 32 32" version="1.1" width="64px" height="64px">
<g id="surface1">
<path style=" " d="M 16 2 C 13.800781 2 12 3.800781 12 6 C 12 7.144531 12.5 8.175781 13.28125 8.90625 C 12.644531 9.355469 12.089844 9.9375 11.625 10.59375 C 10.589844 12.058594 9.871094 13.90625 9.34375 15.71875 C 8.289063 19.34375 8 22.90625 8 22.90625 L 7.90625 24 L 13 24 L 13 30 L 15 30 L 15 24 L 17 24 L 17 30 L 19 30 L 19 24 L 24.09375 24 L 24 22.90625 C 24 22.90625 23.710938 19.34375 22.65625 15.71875 C 22.128906 13.90625 21.410156 12.058594 20.375 10.59375 C 19.910156 9.9375 19.355469 9.355469 18.71875 8.90625 C 19.5 8.175781 20 7.144531 20 6 C 20 3.800781 18.199219 2 16 2 Z M 16 4 C 17.117188 4 18 4.882813 18 6 C 18 7.117188 17.117188 8 16 8 C 14.882813 8 14 7.117188 14 6 C 14 4.882813 14.882813 4 16 4 Z M 16 10 C 17.0625 10 17.925781 10.621094 18.75 11.78125 C 19.574219 12.941406 20.226563 14.59375 20.71875 16.28125 C 21.453125 18.800781 21.746094 20.871094 21.875 22 L 10.125 22 C 10.253906 20.871094 10.546875 18.800781 11.28125 16.28125 C 11.773438 14.59375 12.425781 12.941406 13.25 11.78125 C 14.074219 10.621094 14.9375 10 16 10 Z M 14.5 15 C 13.671875 15 13 15.671875 13 16.5 C 13 17.964844 16 20 16 20 C 16 20 19 18.007813 19 16.5 C 19 15.671875 18.328125 15 17.5 15 C 16.671875 15 16 15.671875 16 16.5 C 16 15.671875 15.328125 15 14.5 15 Z "/>
</g>
</svg>
