<?xml version="1.0" encoding="UTF-8"?>
<svg xmlns="http://www.w3.org/2000/svg" xmlns:xlink="http://www.w3.org/1999/xlink" viewBox="0 0 32 32" version="1.1" width="64px" height="64px">
<g id="surface1">
<path style=" " d="M 17 4 C 14.800781 4 13 5.800781 13 8 C 13 9.480469 13.828125 10.777344 15.03125 11.46875 C 15.011719 11.644531 15 11.816406 15 12 C 15 14.75 17.25 17 20 17 C 22.75 17 25 14.75 25 12 C 25 9.550781 23.207031 7.480469 20.875 7.0625 C 20.453125 5.308594 18.878906 4 17 4 Z M 17 6 C 17.8125 6 18.496094 6.472656 18.8125 7.15625 C 17.503906 7.480469 16.394531 8.335938 15.71875 9.46875 C 15.289063 9.109375 15 8.609375 15 8 C 15 6.882813 15.882813 6 17 6 Z M 20 9 C 21.667969 9 23 10.332031 23 12 C 23 13.667969 21.667969 15 20 15 C 18.332031 15 17 13.667969 17 12 C 17 10.332031 18.332031 9 20 9 Z M 11.46875 16 C 8.273438 16 4.03125 17.75 4.03125 17.75 L 4.78125 19.625 C 4.78125 19.625 9.078125 18 11.46875 18 C 12.4375 18 14.089844 18.59375 15.4375 19.28125 C 16.109375 19.625 16.710938 19.984375 17.15625 20.28125 C 17.378906 20.429688 17.566406 20.5625 17.6875 20.65625 C 17.746094 20.703125 17.789063 20.757813 17.8125 20.78125 L 17.96875 21 C 18.046875 21.222656 18.023438 21.472656 17.875 21.6875 C 17.683594 21.957031 17.34375 22.0625 17.03125 21.96875 L 17 21.96875 L 12.65625 19.875 L 11.8125 21.6875 L 16.25 23.8125 L 16.28125 23.8125 L 16.34375 23.84375 C 17.5 24.25 18.792969 23.847656 19.5 22.84375 C 19.898438 22.277344 20.015625 21.613281 19.9375 20.96875 L 24.75 20.15625 C 25.28125 20.066406 25.769531 20.398438 25.9375 20.90625 C 26.117188 21.445313 25.863281 21.992188 25.34375 22.21875 C 23.878906 22.863281 21.523438 23.828125 19.40625 24.625 C 18.347656 25.023438 17.335938 25.375 16.5625 25.625 C 16.175781 25.75 15.839844 25.84375 15.59375 25.90625 C 15.347656 25.96875 15.148438 26 15.25 26 C 15.3125 26 14.910156 25.910156 14.4375 25.65625 C 13.964844 25.402344 13.371094 25.03125 12.78125 24.65625 C 12.191406 24.28125 11.582031 23.902344 11 23.59375 C 10.417969 23.285156 9.894531 23 9.1875 23 C 7.550781 23 6.09375 23.625 6.09375 23.625 L 6.875 25.46875 C 6.875 25.46875 8.097656 25 9.1875 25 C 9.160156 25 9.585938 25.089844 10.0625 25.34375 C 10.539063 25.597656 11.128906 25.96875 11.71875 26.34375 C 12.308594 26.71875 12.898438 27.097656 13.46875 27.40625 C 14.039063 27.714844 14.539063 28 15.25 28 C 15.589844 28 15.785156 27.925781 16.09375 27.84375 C 16.402344 27.761719 16.777344 27.664063 17.1875 27.53125 C 18.007813 27.265625 19.015625 26.90625 20.09375 26.5 C 22.246094 25.691406 24.632813 24.734375 26.15625 24.0625 C 27.601563 23.425781 28.34375 21.746094 27.84375 20.25 C 27.367188 18.820313 25.894531 17.941406 24.40625 18.1875 L 18.9375 19.09375 C 18.933594 19.089844 18.914063 19.097656 18.90625 19.09375 C 18.875 19.070313 18.84375 19.023438 18.8125 19 L 18.53125 18.78125 L 18.53125 18.8125 C 18.445313 18.75 18.382813 18.691406 18.28125 18.625 C 17.761719 18.28125 17.085938 17.878906 16.34375 17.5 C 14.855469 16.742188 13.109375 16 11.46875 16 Z "/>
</g>
</svg>
