<?xml version="1.0" encoding="UTF-8"?>
<svg xmlns="http://www.w3.org/2000/svg" xmlns:xlink="http://www.w3.org/1999/xlink" viewBox="0 0 32 32" version="1.1" width="64px" height="64px">
<g id="surface1">
<path style=" " d="M 5.71875 4.28125 L 4.28125 5.71875 L 6.78125 8.21875 L 5 10 L 10 10 L 10 5 L 8.21875 6.78125 Z M 26.28125 4.28125 L 23.78125 6.78125 L 22 5 L 22 10 L 27 10 L 25.21875 8.21875 L 27.71875 5.71875 Z M 16 10 C 13.800781 10 12 11.800781 12 14 C 12 15.113281 12.476563 16.117188 13.21875 16.84375 C 12.855469 17.089844 12.539063 17.386719 12.25 17.71875 C 12.007813 17.378906 11.710938 17.0625 11.375 16.8125 C 11.761719 16.308594 12 15.679688 12 15 C 12 13.355469 10.644531 12 9 12 C 7.355469 12 6 13.355469 6 15 C 6 15.679688 6.238281 16.308594 6.625 16.8125 C 5.652344 17.542969 5 18.699219 5 20 L 7 20 C 7 18.882813 7.882813 18 9 18 C 10.117188 18 11 18.882813 11 20 L 11 21 L 13 21 C 13 19.332031 14.332031 18 16 18 C 17.667969 18 19 19.332031 19 21 L 21 21 L 21 20 C 21 18.882813 21.882813 18 23 18 C 24.117188 18 25 18.882813 25 20 L 27 20 C 27 18.699219 26.347656 17.542969 25.375 16.8125 C 25.761719 16.308594 26 15.679688 26 15 C 26 13.355469 24.644531 12 23 12 C 21.355469 12 20 13.355469 20 15 C 20 15.679688 20.238281 16.308594 20.625 16.8125 C 20.289063 17.066406 19.996094 17.378906 19.75 17.71875 C 19.460938 17.386719 19.144531 17.089844 18.78125 16.84375 C 19.523438 16.117188 20 15.113281 20 14 C 20 11.800781 18.199219 10 16 10 Z M 16 12 C 17.117188 12 18 12.882813 18 14 C 18 15.117188 17.117188 16 16 16 C 14.882813 16 14 15.117188 14 14 C 14 12.882813 14.882813 12 16 12 Z M 9 14 C 9.5625 14 10 14.4375 10 15 C 10 15.5625 9.5625 16 9 16 C 8.4375 16 8 15.5625 8 15 C 8 14.4375 8.4375 14 9 14 Z M 23 14 C 23.5625 14 24 14.4375 24 15 C 24 15.5625 23.5625 16 23 16 C 22.4375 16 22 15.5625 22 15 C 22 14.4375 22.4375 14 23 14 Z M 5 22 L 6.78125 23.78125 L 4.28125 26.28125 L 5.71875 27.71875 L 8.21875 25.21875 L 10 27 L 10 22 Z M 22 22 L 22 27 L 23.78125 25.21875 L 26.28125 27.71875 L 27.71875 26.28125 L 25.21875 23.78125 L 27 22 Z "/>
</g>
</svg>
