<?xml version="1.0" encoding="UTF-8"?>
<svg xmlns="http://www.w3.org/2000/svg" xmlns:xlink="http://www.w3.org/1999/xlink" viewBox="0 0 32 32" version="1.1" width="64px" height="64px">
<g id="surface1">
<path style=" " d="M 15 4 L 15 8 L 17 8 L 17 4 Z M 7.5 7.09375 L 6.09375 8.5 L 8.9375 11.34375 L 10.34375 9.9375 Z M 24.5 7.09375 L 21.65625 9.9375 L 23.0625 11.34375 L 25.90625 8.5 Z M 13.625 10 C 12.199219 10 10.964844 11.011719 10.6875 12.40625 L 8.1875 25 L 6 25 L 6 27 L 26 27 L 26 25 L 23.8125 25 L 21.3125 12.40625 C 21.035156 11.011719 19.796875 10 18.375 10 Z M 13.625 12 L 18.375 12 C 18.855469 12 19.25 12.339844 19.34375 12.8125 L 21.78125 25 L 10.21875 25 L 12.65625 12.8125 C 12.75 12.339844 13.140625 12 13.625 12 Z M 3 16 L 3 18 L 7 18 L 7 16 Z M 25 16 L 25 18 L 29 18 L 29 16 Z "/>
</g>
</svg>
