<?xml version="1.0" encoding="UTF-8"?><!DOCTYPE svg PUBLIC "-//W3C//DTD SVG 1.1//EN" "http://www.w3.org/Graphics/SVG/1.1/DTD/svg11.dtd"><svg xmlns="http://www.w3.org/2000/svg" xmlns:xlink="http://www.w3.org/1999/xlink"><defs/><symbol id="aids-ribbon" viewBox="0 0 32 32">
<g id="surface1">
<path style=" " d="M 16 4 C 13.835938 4 12.34375 4.71875 12.34375 4.71875 L 12.125 4.8125 L 11.96875 5.03125 C 11.96875 5.03125 10.597656 6.949219 10.03125 9.8125 L 10 9.90625 L 10 10 C 10 10.457031 10.078125 11.300781 10.375 12.5625 C 10.671875 13.824219 11.179688 15.460938 12.0625 17.25 C 13.824219 20.828125 17.078125 25.074219 22.875 28.375 L 23.96875 29 L 24.34375 27.78125 L 25.96875 22.28125 L 26.1875 21.46875 L 25.4375 21.09375 C 23.109375 19.984375 21.34375 18.644531 19.875 17.25 C 20.605469 15.625 21.230469 14.03125 21.53125 12.84375 C 21.890625 11.421875 22 10.527344 22 10 L 22 9.90625 L 21.96875 9.8125 C 21.402344 6.949219 20.03125 5.03125 20.03125 5.03125 L 19.875 4.8125 L 19.65625 4.71875 C 19.65625 4.71875 18.164063 4 16 4 Z M 16 6 C 16.804688 6 17.421875 6.109375 17.84375 6.21875 C 17.804688 6.503906 17.761719 6.824219 17.6875 7.1875 C 17.132813 7.074219 16.570313 7 16 7 C 15.433594 7 14.867188 7.042969 14.3125 7.15625 C 14.261719 6.847656 14.242188 6.558594 14.21875 6.3125 C 14.671875 6.160156 14.882813 6 16 6 Z M 12.65625 8.21875 C 13.484375 12.035156 15.945313 18.367188 23.8125 22.46875 L 22.78125 25.90625 C 18.089844 22.9375 15.367188 19.371094 13.875 16.34375 C 13.066406 14.707031 12.578125 13.226563 12.3125 12.09375 C 12.054688 10.996094 12.003906 10.238281 12 10.0625 C 12.160156 9.300781 12.429688 8.78125 12.65625 8.21875 Z M 19.46875 8.34375 C 19.65625 8.839844 19.855469 9.386719 20 10.0625 C 19.996094 10.171875 19.914063 11.109375 19.59375 12.375 C 19.371094 13.265625 18.828125 14.496094 18.34375 15.6875 C 17.910156 15.171875 17.535156 14.632813 17.1875 14.125 C 18.402344 11.996094 19.078125 9.960938 19.46875 8.34375 Z M 16 9 C 16.417969 9 16.824219 9.042969 17.21875 9.125 C 16.933594 10.042969 16.527344 11.0625 16 12.125 C 15.449219 11.042969 15.015625 10.035156 14.75 9.125 C 15.152344 9.039063 15.574219 9 16 9 Z M 11.03125 18.46875 C 9.8125 19.445313 8.457031 20.191406 6.5625 21.09375 L 5.8125 21.46875 L 8.03125 29 L 9.125 28.375 C 11.792969 26.855469 13.484375 25.503906 14.90625 23.96875 C 14.4375 23.460938 13.996094 22.949219 13.59375 22.4375 C 12.457031 23.699219 11.160156 24.800781 9.21875 26 L 8.1875 22.53125 C 9.703125 21.785156 10.917969 21.105469 12.03125 20.25 C 11.65625 19.65625 11.332031 19.042969 11.03125 18.46875 Z "/>
</g>
</symbol><symbol id="ambulance" viewBox="0 0 32 32">
<g id="surface1">
<path style=" " d="M 18 3 C 16.894531 3 16 3.894531 16 5 L 16 6 L 1 6 L 1 25 L 4.15625 25 C 4.601563 26.71875 6.148438 28 8 28 C 9.851563 28 11.398438 26.71875 11.84375 25 L 20.15625 25 C 20.601563 26.71875 22.148438 28 24 28 C 25.851563 28 27.398438 26.71875 27.84375 25 L 31 25 L 31 13.625 L 30.75 13.34375 L 24.75 6.34375 L 24.46875 6 L 20 6 L 20 5 C 20 3.894531 19.105469 3 18 3 Z M 3 8 L 23.53125 8 L 29 14.375 L 29 23 L 27.84375 23 C 27.398438 21.28125 25.851563 20 24 20 C 22.148438 20 20.601563 21.28125 20.15625 23 L 11.84375 23 C 11.398438 21.28125 9.851563 20 8 20 C 6.148438 20 4.601563 21.28125 4.15625 23 L 3 23 Z M 14 11 L 14 14 L 11 14 L 11 16 L 14 16 L 14 19 L 16 19 L 16 16 L 19 16 L 19 14 L 16 14 L 16 11 Z M 8 22 C 9.117188 22 10 22.882813 10 24 C 10 25.117188 9.117188 26 8 26 C 6.882813 26 6 25.117188 6 24 C 6 22.882813 6.882813 22 8 22 Z M 24 22 C 25.117188 22 26 22.882813 26 24 C 26 25.117188 25.117188 26 24 26 C 22.882813 26 22 25.117188 22 24 C 22 22.882813 22.882813 22 24 22 Z "/>
</g>
</symbol><symbol id="ask-question" viewBox="0 0 32 32">
<g id="surface1">
<path style=" " d="M 3 4 L 3 22 L 8 22 L 8 27.09375 L 9.625 25.78125 L 14.34375 22 L 29 22 L 29 4 Z M 5 6 L 27 6 L 27 20 L 13.65625 20 L 13.375 20.21875 L 10 22.90625 L 10 20 L 5 20 Z M 16 8 C 13.800781 8 13 9.800781 13 11 L 15 11 C 15 10.5 15.199219 10 16 10 C 16.800781 10 17 10.5 17 11 C 17 11.5 16.488281 11.804688 16.1875 11.90625 L 16 11.90625 C 15.398438 12.105469 15 12.707031 15 13.40625 L 15 15 L 17 15 L 17 13.6875 C 18 13.289063 19 12.300781 19 11 C 19 9.800781 18.199219 8 16 8 Z M 15 16 L 15 18 L 17 18 L 17 16 Z "/>
</g>
</symbol><symbol id="back-arrow" viewBox="0 0 32 32">
<g id="surface1">
<path style=" " d="M 16 3 C 8.832031 3 3 8.832031 3 16 C 3 23.167969 8.832031 29 16 29 C 23.167969 29 29 23.167969 29 16 C 29 8.832031 23.167969 3 16 3 Z M 16 5 C 22.085938 5 27 9.914063 27 16 C 27 22.085938 22.085938 27 16 27 C 9.914063 27 5 22.085938 5 16 C 5 9.914063 9.914063 5 16 5 Z M 15.28125 9.59375 L 8.875 16 L 15.28125 22.40625 L 16.71875 21 L 12.71875 17 L 23 17 L 23 15 L 12.71875 15 L 16.71875 11 Z "/>
</g>
</symbol><symbol id="back" viewBox="0 0 32 32">
<g id="surface1">
<path style=" " d="M 19.03125 4.28125 L 8.03125 15.28125 L 7.34375 16 L 8.03125 16.71875 L 19.03125 27.71875 L 20.46875 26.28125 L 10.1875 16 L 20.46875 5.71875 Z "/>
</g>
</symbol><symbol id="box-important" viewBox="0 0 32 32">
<g id="surface1">
<path style=" " d="M 16 3 C 8.832031 3 3 8.832031 3 16 C 3 23.167969 8.832031 29 16 29 C 23.167969 29 29 23.167969 29 16 C 29 8.832031 23.167969 3 16 3 Z M 16 5 C 22.085938 5 27 9.914063 27 16 C 27 22.085938 22.085938 27 16 27 C 9.914063 27 5 22.085938 5 16 C 5 9.914063 9.914063 5 16 5 Z M 15 10 L 15 18 L 17 18 L 17 10 Z M 15 20 L 15 22 L 17 22 L 17 20 Z "/>
</g>
</symbol><symbol id="cell-phone" viewBox="0 0 32 32">
<g id="surface1">
<path style=" " d="M 9 2 L 9 25 C 9 25.523438 9.183594 26.058594 9.5625 26.4375 C 9.941406 26.816406 10.476563 27 11 27 L 21 27 C 21.523438 27 22.058594 26.816406 22.4375 26.4375 C 22.816406 26.058594 23 25.523438 23 25 L 23 7 C 23 6.476563 22.816406 5.941406 22.4375 5.5625 C 22.058594 5.183594 21.523438 5 21 5 L 11 5 L 11 2 Z M 11 7 L 21 7 L 21 11 L 11 11 Z M 11 13 L 21 13 L 21 25 L 11 25 Z M 12 15 L 12 17 L 14 17 L 14 15 Z M 15 15 L 15 17 L 17 17 L 17 15 Z M 18 15 L 18 17 L 20 17 L 20 15 Z M 12 18 L 12 20 L 14 20 L 14 18 Z M 15 18 L 15 20 L 17 20 L 17 18 Z M 18 18 L 18 20 L 20 20 L 20 18 Z M 12 21 L 12 23 L 14 23 L 14 21 Z M 15 21 L 15 23 L 17 23 L 17 21 Z M 18 21 L 18 23 L 20 23 L 20 21 Z "/>
</g>
</symbol><symbol id="chat-bubble" viewBox="0 0 32 32">
<g id="surface1">
<path style=" " d="M 3 5 L 3 23 L 8 23 L 8 28.078125 L 14.351563 23 L 29 23 L 29 5 Z M 5 7 L 27 7 L 27 21 L 13.648438 21 L 10 23.917969 L 10 21 L 5 21 Z M 10 12 C 8.894531 12 8 12.894531 8 14 C 8 15.105469 8.894531 16 10 16 C 11.105469 16 12 15.105469 12 14 C 12 12.894531 11.105469 12 10 12 Z M 16 12 C 14.894531 12 14 12.894531 14 14 C 14 15.105469 14.894531 16 16 16 C 17.105469 16 18 15.105469 18 14 C 18 12.894531 17.105469 12 16 12 Z M 22 12 C 20.894531 12 20 12.894531 20 14 C 20 15.105469 20.894531 16 22 16 C 23.105469 16 24 15.105469 24 14 C 24 12.894531 23.105469 12 22 12 Z "/>
</g>
</symbol><symbol id="chat" viewBox="0 0 32 32">
<g id="surface1">
<path style=" " d="M 2 5 L 2 21 L 6 21 L 6 26.09375 L 7.625 24.78125 L 12.34375 21 L 22 21 L 22 5 Z M 4 7 L 20 7 L 20 19 L 11.65625 19 L 11.375 19.21875 L 8 21.90625 L 8 19 L 4 19 Z M 24 9 L 24 11 L 28 11 L 28 23 L 24 23 L 24 25.90625 L 20.34375 23 L 12.84375 23 L 10.34375 25 L 19.65625 25 L 26 30.09375 L 26 25 L 30 25 L 30 9 Z "/>
</g>
</symbol><symbol id="combo-chart" viewBox="0 0 32 32">
<g id="surface1">
<path style=" " d="M 27.21875 4.375 L 23.8125 8.625 L 20.59375 6.1875 L 19.8125 5.625 L 19.21875 6.375 L 15.71875 10.75 L 12.4375 9.09375 L 11.65625 8.71875 L 11.15625 9.4375 L 7.75 14.5625 L 4.59375 12.1875 L 3.40625 13.8125 L 7.40625 16.8125 L 8.25 17.4375 L 8.84375 16.5625 L 12.34375 11.3125 L 15.5625 12.90625 L 16.28125 13.25 L 16.78125 12.625 L 20.1875 8.375 L 23.40625 10.8125 L 24.1875 11.375 L 24.78125 10.625 L 28.78125 5.625 Z M 27 12 L 27 28 L 29 28 L 29 12 Z M 19 15 L 19 28 L 21 28 L 21 15 Z M 11 16 L 11 28 L 13 28 L 13 16 Z M 23 17 L 23 28 L 25 28 L 25 17 Z M 3 18 L 3 28 L 5 28 L 5 18 Z M 15 18 L 15 28 L 17 28 L 17 18 Z M 7 21 L 7 28 L 9 28 L 9 21 Z "/>
</g>
</symbol><symbol id="communicate" viewBox="0 0 32 32">
<g id="surface1">
<path style=" " d="M 17 5 L 17 15 L 19 15 L 19 17.875 L 20.5625 16.84375 L 23.3125 15 L 30 15 L 30 5 Z M 19 7 L 28 7 L 28 13 L 22.6875 13 L 22.4375 13.15625 L 21 14.125 L 21 13 L 19 13 Z M 10 8 C 6.699219 8 4 10.699219 4 14 C 4 15.984375 4.976563 17.75 6.46875 18.84375 C 3.832031 20.152344 2 22.863281 2 26 L 4 26 C 4 22.675781 6.675781 20 10 20 C 13.324219 20 16 22.675781 16 26 L 18 26 C 18 22.863281 16.167969 20.152344 13.53125 18.84375 C 15.023438 17.75 16 15.984375 16 14 C 16 10.699219 13.300781 8 10 8 Z M 10 10 C 12.222656 10 14 11.777344 14 14 C 14 16.222656 12.222656 18 10 18 C 7.777344 18 6 16.222656 6 14 C 6 11.777344 7.777344 10 10 10 Z "/>
</g>
</symbol><symbol id="condom-used" viewBox="0 0 32 32">
<g id="surface1">
<path style=" " d="M 16 3 C 14.476563 3 13.304688 4.207031 13.125 5.6875 C 10.707031 6.789063 9 9.175781 9 12 L 9 26 L 11 26 L 11 12 C 11 9.816406 12.402344 7.96875 14.34375 7.28125 L 15 7.0625 L 15 6 C 15 5.433594 15.433594 5 16 5 C 16.566406 5 17 5.433594 17 6 L 17 7.0625 L 17.65625 7.28125 C 19.59375 7.96875 21 9.816406 21 12 L 21 27 L 8 27 L 8 29 L 24 29 L 24 27 L 23 27 L 23 12 C 23 9.175781 21.292969 6.789063 18.875 5.6875 C 18.695313 4.207031 17.523438 3 16 3 Z M 16 11 C 14.894531 11 14 11.960938 14 13.34375 C 14 15.398438 15.140625 15.316406 15.625 17.5625 C 15.988281 19.238281 14.851563 19.453125 15.28125 20.78125 C 15.628906 21.847656 17.3125 23 17.3125 23 C 17.3125 23 16.808594 21.914063 16.5 20.90625 C 16.242188 20.058594 17.367188 19.148438 17.15625 17.71875 C 16.847656 15.613281 18 15.464844 18 13.34375 C 18 11.960938 17.105469 11 16 11 Z "/>
</g>
</symbol><symbol id="download" viewBox="0 0 32 32">
<g id="surface1">
<path style=" " d="M 15 4 L 15 20.5625 L 9.71875 15.28125 L 8.28125 16.71875 L 15.28125 23.71875 L 16 24.40625 L 16.71875 23.71875 L 23.71875 16.71875 L 22.28125 15.28125 L 17 20.5625 L 17 4 Z M 7 26 L 7 28 L 25 28 L 25 26 Z "/>
</g>
</symbol><symbol id="exchange" viewBox="0 0 32 32">
<g id="surface1">
<path style=" " d="M 9 4 C 6.25 4 4 6.25 4 9 C 4 10.515625 4.707031 11.863281 5.78125 12.78125 C 3.53125 13.949219 2 16.300781 2 19 L 4 19 C 4 16.226563 6.226563 14 9 14 C 11.773438 14 14 16.226563 14 19 L 16 19 C 16 16.300781 14.46875 13.949219 12.21875 12.78125 C 13.292969 11.863281 14 10.515625 14 9 C 14 6.25 11.75 4 9 4 Z M 16 19 L 18 19 C 18 16.226563 20.226563 14 23 14 C 25.773438 14 28 16.226563 28 19 L 30 19 C 30 16.300781 28.46875 13.949219 26.21875 12.78125 C 27.292969 11.863281 28 10.515625 28 9 C 28 6.25 25.75 4 23 4 C 20.25 4 18 6.25 18 9 C 18 10.515625 18.707031 11.863281 19.78125 12.78125 C 17.53125 13.949219 16 16.300781 16 19 Z M 9 6 C 10.667969 6 12 7.332031 12 9 C 12 10.667969 10.667969 12 9 12 C 7.332031 12 6 10.667969 6 9 C 6 7.332031 7.332031 6 9 6 Z M 23 6 C 24.667969 6 26 7.332031 26 9 C 26 10.667969 24.667969 12 23 12 C 21.332031 12 20 10.667969 20 9 C 20 7.332031 21.332031 6 23 6 Z M 6.28125 20.28125 L 3.28125 23.28125 L 2.59375 24 L 3.28125 24.71875 L 6.28125 27.71875 L 7.71875 26.28125 L 6.4375 25 L 11 25 L 11 23 L 6.4375 23 L 7.71875 21.71875 Z M 25.71875 20.28125 L 24.28125 21.71875 L 25.5625 23 L 21 23 L 21 25 L 25.5625 25 L 24.28125 26.28125 L 25.71875 27.71875 L 28.71875 24.71875 L 29.40625 24 L 28.71875 23.28125 Z M 13 23 L 13 25 L 15 25 L 15 23 Z M 17 23 L 17 25 L 19 25 L 19 23 Z "/>
</g>
</symbol><symbol id="external-link" viewBox="0 0 32 32">
<g id="surface1">
<path style=" " d="M 18 5 L 18 7 L 23.5625 7 L 11.28125 19.28125 L 12.71875 20.71875 L 25 8.4375 L 25 14 L 27 14 L 27 5 Z M 5 9 L 5 27 L 23 27 L 23 14 L 21 16 L 21 25 L 7 25 L 7 11 L 16 11 L 18 9 Z "/>
</g>
</symbol><symbol id="family" viewBox="0 0 32 32">
<g id="surface1">
<path style=" " d="M 9 6 C 6.25 6 4 8.25 4 11 C 4 12.515625 4.707031 13.863281 5.78125 14.78125 C 3.542969 15.953125 2 18.316406 2 21 L 4 21 C 4 18.246094 6.246094 16 9 16 C 10.382813 16 11.5 16.476563 12.375 17.34375 C 12.140625 17.851563 12 18.410156 12 19 C 12 20.113281 12.476563 21.117188 13.21875 21.84375 C 11.886719 22.746094 11 24.285156 11 26 L 13 26 C 13 24.34375 14.34375 23 16 23 C 17.65625 23 19 24.34375 19 26 L 21 26 C 21 24.285156 20.113281 22.746094 18.78125 21.84375 C 19.523438 21.117188 20 20.113281 20 19 C 20 18.410156 19.859375 17.851563 19.625 17.34375 C 20.5 16.476563 21.617188 16 23 16 C 25.753906 16 28 18.246094 28 21 L 30 21 C 30 18.316406 28.457031 15.953125 26.21875 14.78125 C 27.292969 13.863281 28 12.515625 28 11 C 28 8.25 25.75 6 23 6 C 20.25 6 18 8.25 18 11 C 18 12.515625 18.707031 13.863281 19.78125 14.78125 C 19.265625 15.050781 18.804688 15.417969 18.375 15.8125 C 17.707031 15.308594 16.894531 15 16 15 C 15.105469 15 14.292969 15.308594 13.625 15.8125 C 13.195313 15.417969 12.734375 15.050781 12.21875 14.78125 C 13.292969 13.863281 14 12.515625 14 11 C 14 8.25 11.75 6 9 6 Z M 9 8 C 10.667969 8 12 9.332031 12 11 C 12 12.667969 10.667969 14 9 14 C 7.332031 14 6 12.667969 6 11 C 6 9.332031 7.332031 8 9 8 Z M 23 8 C 24.667969 8 26 9.332031 26 11 C 26 12.667969 24.667969 14 23 14 C 21.332031 14 20 12.667969 20 11 C 20 9.332031 21.332031 8 23 8 Z M 16 17 C 17.117188 17 18 17.882813 18 19 C 18 20.117188 17.117188 21 16 21 C 14.882813 21 14 20.117188 14 19 C 14 17.882813 14.882813 17 16 17 Z "/>
</g>
</symbol><symbol id="forward-button" viewBox="0 0 32 32">
<g id="surface1">
<path style=" " d="M 16 3 C 8.832031 3 3 8.832031 3 16 C 3 23.167969 8.832031 29 16 29 C 23.167969 29 29 23.167969 29 16 C 29 8.832031 23.167969 3 16 3 Z M 16 5 C 22.085938 5 27 9.914063 27 16 C 27 22.085938 22.085938 27 16 27 C 9.914063 27 5 22.085938 5 16 C 5 9.914063 9.914063 5 16 5 Z M 16.71875 9.59375 L 15.28125 11 L 19.28125 15 L 9 15 L 9 17 L 19.28125 17 L 15.28125 21 L 16.71875 22.40625 L 23.125 16 Z "/>
</g>
</symbol><symbol id="forward" viewBox="0 0 32 32">
<g id="surface1">
<path style=" " d="M 12.96875 4.28125 L 11.53125 5.71875 L 21.8125 16 L 11.53125 26.28125 L 12.96875 27.71875 L 23.96875 16.71875 L 24.65625 16 L 23.96875 15.28125 Z "/>
</g>
</symbol><symbol id="increase" viewBox="0 0 32 32">
<g id="surface1">
<path style=" " d="M 22.5625 4.21875 L 22.21875 6.1875 L 24.25 6.53125 L 19.96875 9.21875 L 18.9375 8.125 L 18.3125 7.46875 L 17.59375 8 L 12.46875 11.78125 L 11.59375 10.90625 L 10.96875 10.25 L 10.28125 10.8125 L 2.78125 16.8125 L 4.03125 18.375 L 10.8125 12.9375 L 11.6875 13.8125 L 12.3125 14.40625 L 13 13.90625 L 18.0625 10.125 L 19.0625 11.1875 L 19.625 11.78125 L 20.34375 11.34375 L 25.46875 8.125 L 24.9375 10.375 L 26.875 10.84375 L 27.96875 6.21875 L 28.21875 5.1875 L 27.15625 5 Z M 27 12 L 27 26 L 29 26 L 29 12 Z M 23 14 L 23 26 L 25 26 L 25 14 Z M 19 16 L 19 26 L 21 26 L 21 16 Z M 15 18 L 15 26 L 17 26 L 17 18 Z M 11 20 L 11 26 L 13 26 L 13 20 Z M 7 22 L 7 26 L 9 26 L 9 22 Z M 3 24 L 3 26 L 5 26 L 5 24 Z "/>
</g>
</symbol><symbol id="inspection" viewBox="0 0 32 32">
<g id="surface1">
<path style=" " d="M 16 2 C 14.742188 2 13.847656 2.890625 13.40625 4 L 5 4 L 5 29 L 27 29 L 27 4 L 18.59375 4 C 18.152344 2.890625 17.257813 2 16 2 Z M 16 4 C 16.554688 4 17 4.445313 17 5 L 17 6 L 20 6 L 20 8 L 12 8 L 12 6 L 15 6 L 15 5 C 15 4.445313 15.445313 4 16 4 Z M 7 6 L 10 6 L 10 10 L 22 10 L 22 6 L 25 6 L 25 27 L 7 27 Z M 21.28125 13.28125 L 15 19.5625 L 11.71875 16.28125 L 10.28125 17.71875 L 14.28125 21.71875 L 15 22.40625 L 15.71875 21.71875 L 22.71875 14.71875 Z "/>
</g>
</symbol><symbol id="link" viewBox="0 0 32 32">
<g id="surface1">
<path style=" " d="M 21.75 4 C 20.078125 4 18.492188 4.660156 17.3125 5.84375 L 15.84375 7.3125 C 14.660156 8.496094 14 10.078125 14 11.75 C 14 12.542969 14.152344 13.316406 14.4375 14.03125 L 16.0625 12.40625 C 15.859375 11.109375 16.253906 9.714844 17.25 8.71875 L 18.71875 7.25 C 19.523438 6.445313 20.613281 6 21.75 6 C 22.886719 6 23.945313 6.445313 24.75 7.25 C 26.410156 8.910156 26.410156 11.621094 24.75 13.28125 L 23.28125 14.75 C 22.476563 15.554688 21.386719 16 20.25 16 C 20.027344 16 19.808594 15.976563 19.59375 15.9375 L 17.96875 17.5625 C 18.683594 17.847656 19.457031 18 20.25 18 C 21.921875 18 23.507813 17.339844 24.6875 16.15625 L 26.15625 14.6875 C 27.339844 13.503906 28 11.921875 28 10.25 C 28 8.578125 27.339844 7.027344 26.15625 5.84375 C 24.976563 4.660156 23.421875 4 21.75 4 Z M 19.28125 11.28125 L 11.28125 19.28125 L 12.71875 20.71875 L 20.71875 12.71875 Z M 11.75 14 C 10.078125 14 8.492188 14.660156 7.3125 15.84375 L 5.84375 17.3125 C 4.660156 18.496094 4 20.078125 4 21.75 C 4 23.421875 4.660156 24.972656 5.84375 26.15625 C 7.023438 27.339844 8.578125 28 10.25 28 C 11.921875 28 13.507813 27.339844 14.6875 26.15625 L 16.15625 24.6875 C 17.339844 23.503906 18 21.921875 18 20.25 C 18 19.457031 17.847656 18.683594 17.5625 17.96875 L 15.9375 19.59375 C 16.140625 20.890625 15.746094 22.285156 14.75 23.28125 L 13.28125 24.75 C 12.476563 25.554688 11.386719 26 10.25 26 C 9.113281 26 8.054688 25.554688 7.25 24.75 C 5.589844 23.089844 5.589844 20.378906 7.25 18.71875 L 8.71875 17.25 C 9.523438 16.445313 10.613281 16 11.75 16 C 11.972656 16 12.191406 16.023438 12.40625 16.0625 L 14.03125 14.4375 C 13.316406 14.152344 12.542969 14 11.75 14 Z "/>
</g>
</symbol><symbol id="management" viewBox="0 0 32 32">
<g id="surface1">
<path style=" " d="M 16 5 C 12.144531 5 9 8.144531 9 12 C 9 14.40625 10.230469 16.539063 12.089844 17.796875 C 8.515625 19.324219 6 22.875 6 27 L 8 27 C 8 23.472656 10.269531 20.496094 13.425781 19.425781 L 15.75 21.75 L 14 27 L 16 29 L 18 27 L 16.25 21.75 L 18.574219 19.425781 C 21.730469 20.496094 24 23.472656 24 27 L 26 27 C 26 22.875 23.484375 19.324219 19.910156 17.796875 C 21.769531 16.539063 23 14.40625 23 12 C 23 8.144531 19.855469 5 16 5 Z M 16 7 C 18.773438 7 21 9.226563 21 12 C 21 14.773438 18.773438 17 16 17 C 13.226563 17 11 14.773438 11 12 C 11 9.226563 13.226563 7 16 7 Z M 24 8.070313 L 24 10.105469 C 25.804688 10.453125 27 11.746094 27 13.5 C 27 15.253906 25.804688 16.546875 24 16.894531 L 24 19.09375 C 26.796875 19.585938 29 22.089844 29 25 L 31 25 C 31 21.980469 29.21875 19.289063 26.675781 17.933594 C 28.113281 16.957031 29 15.382813 29 13.5 C 29 10.628906 26.949219 8.472656 24 8.070313 Z M 8 8.078125 C 5.089844 8.488281 3 10.679688 3 13.5 C 3 15.382813 3.886719 16.957031 5.324219 17.933594 C 2.78125 19.289063 1 21.980469 1 25 L 3 25 C 3 22.089844 5.203125 19.585938 8 19.09375 L 8 16.894531 C 6.195313 16.546875 5 15.253906 5 13.5 C 5 11.777344 6.21875 10.46875 8 10.109375 Z "/>
</g>
</symbol><symbol id="megaphone" viewBox="0 0 32 32">
<g id="surface1">
<path style=" " d="M 30 4.65625 L 28.71875 5.03125 L 5.8125 12 L 2 12 L 2 20 L 5.8125 20 L 7.78125 20.59375 L 7.75 20.6875 L 7.75 20.71875 C 7.109375 22.832031 8.296875 25.179688 10.5 25.84375 C 10.507813 25.847656 10.523438 25.839844 10.53125 25.84375 C 12.652344 26.488281 15.003906 25.316406 15.65625 23.09375 L 15.6875 23 L 28.71875 26.96875 L 30 27.34375 Z M 28 7.34375 L 28 24.65625 L 6.28125 18.03125 L 6.15625 18 L 4 18 L 4 14 L 6.15625 14 L 6.28125 13.96875 Z M 9.6875 21.1875 L 13.78125 22.40625 L 13.75 22.5 L 13.75 22.53125 C 13.40625 23.699219 12.164063 24.273438 11.09375 23.9375 C 9.925781 23.59375 9.320313 22.382813 9.65625 21.3125 L 9.65625 21.28125 Z "/>
</g>
</symbol><symbol id="microscope" viewBox="0 0 32 32">
<g id="surface1">
<path style=" " d="M 17 4 L 17 6 L 21 6 L 21 4 Z M 16 7 L 16 9 L 14 9 C 11.253906 9 9 11.253906 9 14 L 9 18.1875 C 7.84375 18.605469 7 19.707031 7 21 C 7 22.292969 7.84375 23.394531 9 23.8125 L 9 26 L 7 26 L 7 28 L 24 28 L 24 26 L 11 26 L 11 23.8125 C 11.84375 23.507813 12.507813 22.84375 12.8125 22 L 24 22 L 24 20 L 12.8125 20 C 12.507813 19.160156 11.839844 18.492188 11 18.1875 L 11 14 C 11 12.34375 12.34375 11 14 11 L 16 11 L 16 17 L 22 17 L 22 7 Z M 18 9 L 20 9 L 20 15 L 18 15 Z M 10 20 C 10.5625 20 11 20.4375 11 21 C 11 21.5625 10.5625 22 10 22 C 9.4375 22 9 21.5625 9 21 C 9 20.4375 9.4375 20 10 20 Z "/>
</g>
</symbol><symbol id="mosquito" viewBox="0 0 32 32">
<g id="surface1">
<path style=" " d="M 9.0625 4.71875 L 7.65625 6.15625 L 9.78125 8.1875 L 8.75 10.25 L 9.34375 10.75 L 10.875 12.0625 C 9.820313 12.308594 8.761719 12.453125 7.8125 12.59375 C 6.929688 12.722656 6.152344 12.839844 5.4375 13.15625 C 5.078125 13.3125 4.714844 13.523438 4.4375 13.875 C 4.160156 14.226563 4 14.699219 4 15.15625 C 4 15.816406 4.398438 16.347656 4.8125 16.6875 C 5.226563 17.027344 5.710938 17.253906 6.25 17.4375 C 6.640625 17.570313 7.066406 17.664063 7.5 17.75 L 7.125 18.90625 L 5.21875 21.40625 L 6.78125 22.59375 L 8.78125 20 L 8.90625 19.875 L 8.9375 19.6875 L 9.5 18 C 9.625 18.003906 9.75 18 9.875 18 C 9.917969 18 9.957031 18 10 18 L 10 21.65625 L 7.25 26.5 L 9 27.5 L 11.875 22.4375 L 12 22.1875 L 12 17.75 C 12.449219 17.628906 12.835938 17.441406 13.1875 17.21875 C 13.074219 17.773438 13 18.378906 13 19 C 13 20.03125 13.023438 21.324219 13.34375 22.5 C 13.503906 23.089844 13.730469 23.671875 14.15625 24.15625 C 14.582031 24.640625 15.269531 25 16 25 C 16.730469 25 17.417969 24.640625 17.84375 24.15625 C 18.269531 23.671875 18.496094 23.089844 18.65625 22.5 C 18.976563 21.324219 19 20.03125 19 19 C 19 18.378906 18.925781 17.773438 18.8125 17.21875 C 19.15625 17.4375 19.566406 17.59375 20 17.71875 L 20 22.1875 L 20.125 22.4375 L 23 27.5 L 24.75 26.5 L 22 21.65625 L 22 18 C 22.042969 18 22.082031 18 22.125 18 C 22.253906 18 22.371094 18.003906 22.5 18 L 23.0625 19.6875 L 23.09375 19.875 L 23.21875 20 L 25.21875 22.59375 L 26.78125 21.40625 L 24.875 18.90625 L 24.5 17.75 C 24.933594 17.664063 25.359375 17.570313 25.75 17.4375 C 26.289063 17.253906 26.773438 17.027344 27.1875 16.6875 C 27.601563 16.347656 28 15.816406 28 15.15625 C 28 14.699219 27.839844 14.226563 27.5625 13.875 C 27.285156 13.523438 26.921875 13.3125 26.5625 13.15625 C 25.847656 12.839844 25.070313 12.722656 24.1875 12.59375 C 23.238281 12.453125 22.179688 12.308594 21.125 12.0625 L 22.65625 10.75 L 23.25 10.25 L 22.21875 8.1875 L 24.34375 6.15625 L 22.9375 4.71875 L 20.3125 7.28125 L 19.78125 7.78125 L 20.09375 8.4375 L 20.75 9.75 L 19 11.28125 L 19 10.71875 C 19 9.832031 18.621094 9.011719 18 8.5625 C 18 7.957031 17.832031 7.171875 17 7.03125 L 17 5 L 15 5 L 15 7.0625 C 14.140625 7.207031 14 7.949219 14 8.5625 C 13.378906 9.011719 13 9.832031 13 10.71875 L 13 11.28125 L 11.25 9.75 L 11.90625 8.4375 L 12.21875 7.78125 L 11.6875 7.28125 Z M 16 10 C 16.4375 10 16.710938 10.082031 16.8125 10.15625 C 16.914063 10.230469 17 10.28125 17 10.71875 L 17 12 C 17 12.539063 17 13.050781 17.03125 13.53125 C 16.933594 13.707031 16.679688 14 16 14 C 15.277344 14 15.019531 13.667969 14.9375 13.5 C 14.96875 13.023438 15 12.539063 15 12 L 15 10.71875 C 15 10.28125 15.054688 10.230469 15.15625 10.15625 C 15.257813 10.082031 15.5625 10 16 10 Z M 12.75 13.46875 C 12.660156 14.089844 12.65625 14.988281 12.46875 15.25 C 12.125 15.726563 11.511719 16 9.875 16 C 8.804688 16 7.691406 15.832031 6.90625 15.5625 C 6.515625 15.425781 6.199219 15.265625 6.0625 15.15625 C 6.027344 15.128906 6.011719 15.136719 6 15.125 C 6.003906 15.117188 6.054688 15.042969 6.21875 14.96875 C 6.546875 14.824219 7.238281 14.6875 8.09375 14.5625 C 9.371094 14.375 11.050781 14.042969 12.75 13.46875 Z M 19.25 13.46875 C 20.949219 14.042969 22.628906 14.375 23.90625 14.5625 C 24.761719 14.6875 25.453125 14.824219 25.78125 14.96875 C 25.945313 15.042969 25.996094 15.117188 26 15.125 C 25.988281 15.136719 25.972656 15.128906 25.9375 15.15625 C 25.800781 15.265625 25.484375 15.425781 25.09375 15.5625 C 24.308594 15.832031 23.195313 16 22.125 16 C 20.488281 16 19.875 15.726563 19.53125 15.25 C 19.34375 14.988281 19.339844 14.089844 19.25 13.46875 Z M 15.65625 15.96875 C 15.769531 15.980469 15.878906 16 16 16 C 16.121094 16 16.230469 15.980469 16.34375 15.96875 C 16.613281 16.640625 17 17.855469 17 19 C 17 19.976563 16.941406 21.179688 16.71875 22 C 16.605469 22.410156 16.464844 22.703125 16.34375 22.84375 C 16.222656 22.984375 16.183594 23 16 23 C 15.816406 23 15.777344 22.984375 15.65625 22.84375 C 15.535156 22.703125 15.394531 22.410156 15.28125 22 C 15.058594 21.179688 15 19.976563 15 19 C 15 17.851563 15.386719 16.640625 15.65625 15.96875 Z "/>
</g>
</symbol><symbol id="natural-food" viewBox="0 0 32 32">
<g id="surface1">
<path style=" " d="M 9.5 3.8125 L 9 4.28125 C 9 4.28125 5 7.925781 5 12.5625 C 5 17.847656 9.71875 20.15625 9.71875 20.15625 L 10.8125 20.6875 L 11.125 19.5 C 11.125 19.5 11.382813 18.421875 12.375 17.28125 C 13.367188 16.140625 15.007813 15 18 15 C 22.457031 15 25.566406 17.394531 26.53125 18.1875 C 25.761719 19.265625 22.894531 23 18 23 C 15.769531 23 14.277344 22.515625 13.375 22.125 C 14.664063 21.117188 16 20.546875 17.21875 20.21875 C 19.789063 19.527344 21.78125 19.96875 21.78125 19.96875 L 22.21875 18.03125 C 22.21875 18.03125 21.59375 17.878906 20.59375 17.84375 C 19.59375 17.808594 18.207031 17.875 16.6875 18.28125 C 13.648438 19.097656 9.992188 21.355469 7.625 26.59375 L 9.4375 27.40625 C 10.152344 25.820313 10.972656 24.582031 11.84375 23.59375 C 12.796875 24.078125 14.953125 25 18 25 C 24.890625 25 28.84375 18.53125 28.84375 18.53125 L 29.28125 17.84375 L 28.6875 17.28125 C 28.6875 17.28125 24.148438 13 18 13 C 16.898438 13 15.960938 13.164063 15.09375 13.40625 C 15.238281 12.53125 15.308594 11.503906 15.03125 10.21875 C 14.113281 5.929688 10.125 4.09375 10.125 4.09375 Z M 9.875 6.34375 C 10.660156 6.800781 12.5 7.992188 13.0625 10.625 C 13.34375 11.941406 13.242188 12.972656 13.0625 13.65625 C 12.882813 14.339844 12.6875 14.59375 12.6875 14.59375 C 12.019531 15.035156 11.3125 15.46875 10.875 15.96875 C 10.769531 16.089844 10.683594 16.222656 10.59375 16.34375 C 10.535156 15.753906 10.492188 15.160156 10.5 14.59375 C 10.515625 13.136719 10.65625 11.96875 10.65625 11.96875 L 8.6875 11.6875 C 8.6875 11.6875 8.519531 12.96875 8.5 14.5625 C 8.492188 15.253906 8.519531 16.023438 8.59375 16.78125 C 7.777344 15.953125 7 14.65625 7 12.5625 C 7 9.652344 9.148438 7.140625 9.875 6.34375 Z "/>
</g>
</symbol><symbol id="notification" viewBox="0 0 32 32">
<g id="surface1">
<path style=" " d="M 16 3 C 14.894531 3 14 3.894531 14 5 C 14 5.085938 14.019531 5.167969 14.03125 5.25 C 10.574219 6.132813 8 9.273438 8 13 L 8 22 C 8 22.566406 7.566406 23 7 23 L 6 23 L 6 25 L 13.1875 25 C 13.074219 25.316406 13 25.648438 13 26 C 13 27.644531 14.355469 29 16 29 C 17.644531 29 19 27.644531 19 26 C 19 25.648438 18.925781 25.316406 18.8125 25 L 26 25 L 26 23 L 25 23 C 24.433594 23 24 22.566406 24 22 L 24 13.28125 C 24 9.523438 21.488281 6.171875 17.96875 5.25 C 17.980469 5.167969 18 5.085938 18 5 C 18 3.894531 17.105469 3 16 3 Z M 15.5625 7 C 15.707031 6.988281 15.851563 7 16 7 C 16.0625 7 16.125 7 16.1875 7 C 19.453125 7.097656 22 9.960938 22 13.28125 L 22 22 C 22 22.351563 22.074219 22.683594 22.1875 23 L 9.8125 23 C 9.925781 22.683594 10 22.351563 10 22 L 10 13 C 10 9.824219 12.445313 7.226563 15.5625 7 Z M 16 25 C 16.5625 25 17 25.4375 17 26 C 17 26.5625 16.5625 27 16 27 C 15.4375 27 15 26.5625 15 26 C 15 25.4375 15.4375 25 16 25 Z "/>
</g>
</symbol><symbol id="porridge" viewBox="0 0 32 32">
<g id="surface1">
<path style=" " d="M 24.21875 2.9375 L 19.65625 11.5 C 19.175781 11.171875 18.609375 10.984375 17.9375 11 C 17.289063 10.367188 16.417969 10 15.5 10 C 14.335938 10 13.265625 10.589844 12.625 11.5 C 12.144531 11.183594 11.589844 11 11 11 C 9.695313 11 8.566406 11.832031 8.15625 13 C 6.457031 12.894531 5 14.289063 5 16 L 3 16 L 3 17 C 3 17.121094 3.152344 29 16 29 C 28.847656 29 29 17.121094 29 17 L 29 16 L 27 16 C 27 14.648438 26.105469 13.5 24.875 13.125 C 24.519531 11.953125 23.453125 11.113281 22.1875 11.03125 L 26 3.875 Z M 15.5 12 C 15.980469 12 16.4375 12.226563 16.71875 12.625 L 17.125 13.1875 L 17.78125 13.03125 C 17.875 13.007813 17.933594 13 18 13 C 18.550781 13 19 13.449219 19 14 L 21 14 C 21 13.449219 21.449219 13 22 13 C 22.550781 13 23 13.449219 23 14 L 23 15 L 24 15 C 24.550781 15 25 15.449219 25 16 L 7 16 C 7 15.449219 7.449219 15 8 15 C 8.144531 15 8.277344 15.039063 8.46875 15.15625 L 9.0625 15.5 L 10.125 14.75 L 10.03125 14.125 C 10.023438 14.082031 10 14.046875 10 14 C 10 13.449219 10.449219 13 11 13 C 11.359375 13 11.691406 13.207031 11.875 13.53125 L 12.1875 14.09375 L 12.875 14.03125 L 13.875 14 L 14.03125 13.1875 C 14.171875 12.492188 14.789063 12 15.5 12 Z M 13.5 16 C 13.777344 16 14 15.777344 14 15.5 C 14 15.222656 13.777344 15 13.5 15 C 13.222656 15 13 15.222656 13 15.5 C 13 15.777344 13.222656 16 13.5 16 Z M 20.5 16 C 20.777344 16 21 15.777344 21 15.5 C 21 15.222656 20.777344 15 20.5 15 C 20.222656 15 20 15.222656 20 15.5 C 20 15.777344 20.222656 16 20.5 16 Z M 15.5 14 C 15.222656 14 15 14.222656 15 14.5 C 15 14.777344 15.222656 15 15.5 15 C 15.777344 15 16 14.777344 16 14.5 C 16 14.222656 15.777344 14 15.5 14 Z M 5.09375 18 L 26.9375 18 C 26.609375 20.546875 24.878906 27 16 27 C 7.121094 27 5.421875 20.546875 5.09375 18 Z "/>
</g>
</symbol><symbol id="pregnant" viewBox="0 0 32 32">
<g id="surface1">
<path style=" " d="M 16 2 C 13.800781 2 12 3.800781 12 6 C 12 7.144531 12.5 8.175781 13.28125 8.90625 C 12.644531 9.355469 12.089844 9.9375 11.625 10.59375 C 10.589844 12.058594 9.871094 13.90625 9.34375 15.71875 C 8.289063 19.34375 8 22.90625 8 22.90625 L 7.90625 24 L 13 24 L 13 30 L 15 30 L 15 24 L 17 24 L 17 30 L 19 30 L 19 24 L 24.09375 24 L 24 22.90625 C 24 22.90625 23.710938 19.34375 22.65625 15.71875 C 22.128906 13.90625 21.410156 12.058594 20.375 10.59375 C 19.910156 9.9375 19.355469 9.355469 18.71875 8.90625 C 19.5 8.175781 20 7.144531 20 6 C 20 3.800781 18.199219 2 16 2 Z M 16 4 C 17.117188 4 18 4.882813 18 6 C 18 7.117188 17.117188 8 16 8 C 14.882813 8 14 7.117188 14 6 C 14 4.882813 14.882813 4 16 4 Z M 16 10 C 17.0625 10 17.925781 10.621094 18.75 11.78125 C 19.574219 12.941406 20.226563 14.59375 20.71875 16.28125 C 21.453125 18.800781 21.746094 20.871094 21.875 22 L 10.125 22 C 10.253906 20.871094 10.546875 18.800781 11.28125 16.28125 C 11.773438 14.59375 12.425781 12.941406 13.25 11.78125 C 14.074219 10.621094 14.9375 10 16 10 Z M 14.5 15 C 13.671875 15 13 15.671875 13 16.5 C 13 17.964844 16 20 16 20 C 16 20 19 18.007813 19 16.5 C 19 15.671875 18.328125 15 17.5 15 C 16.671875 15 16 15.671875 16 16.5 C 16 15.671875 15.328125 15 14.5 15 Z "/>
</g>
</symbol><symbol id="receive-cash" viewBox="0 0 32 32">
<g id="surface1">
<path style=" " d="M 17 4 C 14.800781 4 13 5.800781 13 8 C 13 9.480469 13.828125 10.777344 15.03125 11.46875 C 15.011719 11.644531 15 11.816406 15 12 C 15 14.75 17.25 17 20 17 C 22.75 17 25 14.75 25 12 C 25 9.550781 23.207031 7.480469 20.875 7.0625 C 20.453125 5.308594 18.878906 4 17 4 Z M 17 6 C 17.8125 6 18.496094 6.472656 18.8125 7.15625 C 17.503906 7.480469 16.394531 8.335938 15.71875 9.46875 C 15.289063 9.109375 15 8.609375 15 8 C 15 6.882813 15.882813 6 17 6 Z M 20 9 C 21.667969 9 23 10.332031 23 12 C 23 13.667969 21.667969 15 20 15 C 18.332031 15 17 13.667969 17 12 C 17 10.332031 18.332031 9 20 9 Z M 11.46875 16 C 8.273438 16 4.03125 17.75 4.03125 17.75 L 4.78125 19.625 C 4.78125 19.625 9.078125 18 11.46875 18 C 12.4375 18 14.089844 18.59375 15.4375 19.28125 C 16.109375 19.625 16.710938 19.984375 17.15625 20.28125 C 17.378906 20.429688 17.566406 20.5625 17.6875 20.65625 C 17.746094 20.703125 17.789063 20.757813 17.8125 20.78125 L 17.96875 21 C 18.046875 21.222656 18.023438 21.472656 17.875 21.6875 C 17.683594 21.957031 17.34375 22.0625 17.03125 21.96875 L 17 21.96875 L 12.65625 19.875 L 11.8125 21.6875 L 16.25 23.8125 L 16.28125 23.8125 L 16.34375 23.84375 C 17.5 24.25 18.792969 23.847656 19.5 22.84375 C 19.898438 22.277344 20.015625 21.613281 19.9375 20.96875 L 24.75 20.15625 C 25.28125 20.066406 25.769531 20.398438 25.9375 20.90625 C 26.117188 21.445313 25.863281 21.992188 25.34375 22.21875 C 23.878906 22.863281 21.523438 23.828125 19.40625 24.625 C 18.347656 25.023438 17.335938 25.375 16.5625 25.625 C 16.175781 25.75 15.839844 25.84375 15.59375 25.90625 C 15.347656 25.96875 15.148438 26 15.25 26 C 15.3125 26 14.910156 25.910156 14.4375 25.65625 C 13.964844 25.402344 13.371094 25.03125 12.78125 24.65625 C 12.191406 24.28125 11.582031 23.902344 11 23.59375 C 10.417969 23.285156 9.894531 23 9.1875 23 C 7.550781 23 6.09375 23.625 6.09375 23.625 L 6.875 25.46875 C 6.875 25.46875 8.097656 25 9.1875 25 C 9.160156 25 9.585938 25.089844 10.0625 25.34375 C 10.539063 25.597656 11.128906 25.96875 11.71875 26.34375 C 12.308594 26.71875 12.898438 27.097656 13.46875 27.40625 C 14.039063 27.714844 14.539063 28 15.25 28 C 15.589844 28 15.785156 27.925781 16.09375 27.84375 C 16.402344 27.761719 16.777344 27.664063 17.1875 27.53125 C 18.007813 27.265625 19.015625 26.90625 20.09375 26.5 C 22.246094 25.691406 24.632813 24.734375 26.15625 24.0625 C 27.601563 23.425781 28.34375 21.746094 27.84375 20.25 C 27.367188 18.820313 25.894531 17.941406 24.40625 18.1875 L 18.9375 19.09375 C 18.933594 19.089844 18.914063 19.097656 18.90625 19.09375 C 18.875 19.070313 18.84375 19.023438 18.8125 19 L 18.53125 18.78125 L 18.53125 18.8125 C 18.445313 18.75 18.382813 18.691406 18.28125 18.625 C 17.761719 18.28125 17.085938 17.878906 16.34375 17.5 C 14.855469 16.742188 13.109375 16 11.46875 16 Z "/>
</g>
</symbol><symbol id="safety-collection-place" viewBox="0 0 32 32">
<g id="surface1">
<path style=" " d="M 5.71875 4.28125 L 4.28125 5.71875 L 6.78125 8.21875 L 5 10 L 10 10 L 10 5 L 8.21875 6.78125 Z M 26.28125 4.28125 L 23.78125 6.78125 L 22 5 L 22 10 L 27 10 L 25.21875 8.21875 L 27.71875 5.71875 Z M 16 10 C 13.800781 10 12 11.800781 12 14 C 12 15.113281 12.476563 16.117188 13.21875 16.84375 C 12.855469 17.089844 12.539063 17.386719 12.25 17.71875 C 12.007813 17.378906 11.710938 17.0625 11.375 16.8125 C 11.761719 16.308594 12 15.679688 12 15 C 12 13.355469 10.644531 12 9 12 C 7.355469 12 6 13.355469 6 15 C 6 15.679688 6.238281 16.308594 6.625 16.8125 C 5.652344 17.542969 5 18.699219 5 20 L 7 20 C 7 18.882813 7.882813 18 9 18 C 10.117188 18 11 18.882813 11 20 L 11 21 L 13 21 C 13 19.332031 14.332031 18 16 18 C 17.667969 18 19 19.332031 19 21 L 21 21 L 21 20 C 21 18.882813 21.882813 18 23 18 C 24.117188 18 25 18.882813 25 20 L 27 20 C 27 18.699219 26.347656 17.542969 25.375 16.8125 C 25.761719 16.308594 26 15.679688 26 15 C 26 13.355469 24.644531 12 23 12 C 21.355469 12 20 13.355469 20 15 C 20 15.679688 20.238281 16.308594 20.625 16.8125 C 20.289063 17.066406 19.996094 17.378906 19.75 17.71875 C 19.460938 17.386719 19.144531 17.089844 18.78125 16.84375 C 19.523438 16.117188 20 15.113281 20 14 C 20 11.800781 18.199219 10 16 10 Z M 16 12 C 17.117188 12 18 12.882813 18 14 C 18 15.117188 17.117188 16 16 16 C 14.882813 16 14 15.117188 14 14 C 14 12.882813 14.882813 12 16 12 Z M 9 14 C 9.5625 14 10 14.4375 10 15 C 10 15.5625 9.5625 16 9 16 C 8.4375 16 8 15.5625 8 15 C 8 14.4375 8.4375 14 9 14 Z M 23 14 C 23.5625 14 24 14.4375 24 15 C 24 15.5625 23.5625 16 23 16 C 22.4375 16 22 15.5625 22 15 C 22 14.4375 22.4375 14 23 14 Z M 5 22 L 6.78125 23.78125 L 4.28125 26.28125 L 5.71875 27.71875 L 8.21875 25.21875 L 10 27 L 10 22 Z M 22 22 L 22 27 L 23.78125 25.21875 L 26.28125 27.71875 L 27.71875 26.28125 L 25.21875 23.78125 L 27 22 Z "/>
</g>
</symbol><symbol id="schedule" viewBox="0 0 32 32">
<g id="surface1">
<path style=" " d="M 10 3 C 5.59375 3 2 6.59375 2 11 C 2 13.949219 3.613281 16.519531 6 17.90625 L 6 27 L 28 27 L 28 7 L 23 7 L 23 6 L 21 6 L 21 7 L 16.90625 7 C 15.519531 4.613281 12.949219 3 10 3 Z M 10 5 C 13.324219 5 16 7.675781 16 11 C 16 14.324219 13.324219 17 10 17 C 6.675781 17 4 14.324219 4 11 C 4 7.675781 6.675781 5 10 5 Z M 9 7 L 9 11.5625 L 7.28125 13.28125 L 8.71875 14.71875 L 10.71875 12.71875 L 11 12.40625 L 11 7 Z M 17.71875 9 L 21 9 L 21 10 L 23 10 L 23 9 L 26 9 L 26 11 L 18 11 C 18 10.304688 17.886719 9.644531 17.71875 9 Z M 17.71875 13 L 26 13 L 26 25 L 8 25 L 8 18.71875 C 8.644531 18.886719 9.304688 19 10 19 C 13.710938 19 16.820313 16.4375 17.71875 13 Z M 18 17 L 18 19 L 20 19 L 20 17 Z M 22 17 L 22 19 L 24 19 L 24 17 Z M 10 21 L 10 23 L 12 23 L 12 21 Z M 14 21 L 14 23 L 16 23 L 16 21 Z M 18 21 L 18 23 L 20 23 L 20 21 Z M 22 21 L 22 23 L 24 23 L 24 21 Z "/>
</g>
</symbol><symbol id="search-property" viewBox="0 0 32 32">
<g id="surface1">
<path style=" " d="M 4 5 L 4 27 L 19.46875 27 L 20.125 26.34375 C 19.933594 25.914063 19.761719 25.46875 19.65625 25 L 6 25 L 6 11 L 26 11 L 26 16.53125 C 26.164063 16.519531 26.332031 16.5 26.5 16.5 C 27.015625 16.5 27.515625 16.550781 28 16.65625 L 28 5 Z M 6 7 L 26 7 L 26 9 L 6 9 Z M 9 13 L 9 15 L 11 15 L 11 13 Z M 13 13 L 13 15 L 23 15 L 23 13 Z M 9 17 L 9 19 L 11 19 L 11 17 Z M 13 17 L 13 19 L 20.5 19 C 21.109375 18.191406 21.898438 17.507813 22.78125 17 Z M 26.5 18 C 23.472656 18 21 20.472656 21 23.5 C 21 24.648438 21.359375 25.707031 21.96875 26.59375 L 18.28125 30.28125 L 19.71875 31.71875 L 23.40625 28.03125 C 24.292969 28.640625 25.351563 29 26.5 29 C 29.527344 29 32 26.527344 32 23.5 C 32 20.472656 29.527344 18 26.5 18 Z M 26.5 20 C 28.445313 20 30 21.554688 30 23.5 C 30 25.445313 28.445313 27 26.5 27 C 24.554688 27 23 25.445313 23 23.5 C 23 21.554688 24.554688 20 26.5 20 Z M 9 21 L 9 23 L 11 23 L 11 21 Z M 13 21 L 13 23 L 19.03125 23 C 19.078125 22.304688 19.210938 21.632813 19.4375 21 Z "/>
</g>
</symbol><symbol id="siren" viewBox="0 0 32 32">
<g id="surface1">
<path style=" " d="M 15 4 L 15 8 L 17 8 L 17 4 Z M 7.5 7.09375 L 6.09375 8.5 L 8.9375 11.34375 L 10.34375 9.9375 Z M 24.5 7.09375 L 21.65625 9.9375 L 23.0625 11.34375 L 25.90625 8.5 Z M 13.625 10 C 12.199219 10 10.964844 11.011719 10.6875 12.40625 L 8.1875 25 L 6 25 L 6 27 L 26 27 L 26 25 L 23.8125 25 L 21.3125 12.40625 C 21.035156 11.011719 19.796875 10 18.375 10 Z M 13.625 12 L 18.375 12 C 18.855469 12 19.25 12.339844 19.34375 12.8125 L 21.78125 25 L 10.21875 25 L 12.65625 12.8125 C 12.75 12.339844 13.140625 12 13.625 12 Z M 3 16 L 3 18 L 7 18 L 7 16 Z M 25 16 L 25 18 L 29 18 L 29 16 Z "/>
</g>
</symbol><symbol id="syringe" viewBox="0 0 32 32">
<g id="surface1">
<path style=" " d="M 23.21875 3.78125 L 21.78125 5.21875 L 22.15625 5.59375 L 19.875 7.875 L 21.28125 9.3125 L 23.5625 7 L 25 8.4375 L 22.6875 10.71875 L 24.125 12.125 L 26.40625 9.84375 L 26.78125 10.21875 L 28.21875 8.78125 Z M 17.71875 7.28125 L 16.28125 8.71875 L 16.9375 9.375 L 7 19.34375 L 6.65625 19.6875 L 6.71875 20.15625 L 7.0625 23.34375 L 7.09375 23.6875 L 7.1875 23.75 L 3.9375 27 L 6.78125 27 L 8.8125 24.96875 L 11.84375 25.28125 L 12.3125 25.34375 L 12.65625 25 L 22.625 15.0625 L 23.28125 15.71875 L 24.71875 14.28125 Z M 18.375 10.8125 L 21.1875 13.625 L 11.59375 23.25 L 9.21875 22.96875 L 9.03125 22.78125 L 8.75 20.40625 Z "/>
</g>
</symbol><symbol id="trolley" viewBox="0 0 32 32">
<g id="surface1">
<path style=" " d="M 18.59375 1.65625 L 17.65625 2 L 12.125 4.03125 L 11.1875 4.375 L 11.53125 5.3125 L 13.21875 9.875 L 13.5625 10.8125 L 14.5 10.46875 L 20.03125 8.4375 L 20.96875 8.09375 L 20.625 7.15625 L 18.9375 2.59375 Z M 8.59375 3 L 7.65625 3.34375 L 5 4.3125 L 5.65625 6.1875 L 7.40625 5.5625 L 14.0625 23.34375 L 14.40625 24.28125 L 15.34375 23.9375 L 25.96875 19.9375 L 25.28125 18.0625 L 15.59375 21.71875 L 8.9375 3.9375 Z M 17.40625 4.21875 L 18.40625 6.90625 L 14.75 8.25 L 13.75 5.5625 Z M 21.78125 9.90625 L 20.84375 10.25 L 15.3125 12.28125 L 14.375 12.625 L 14.71875 13.5625 L 16.40625 18.125 L 16.75 19.0625 L 17.6875 18.71875 L 23.21875 16.6875 L 24.15625 16.34375 L 23.8125 15.375 L 22.125 10.84375 Z M 20.59375 12.46875 L 21.59375 15.15625 L 17.9375 16.5 L 16.9375 13.8125 Z M 11 21 C 9.355469 21 8 22.355469 8 24 C 8 25.644531 9.355469 27 11 27 C 12.644531 27 14 25.644531 14 24 C 14 22.355469 12.644531 21 11 21 Z M 11 27 L 5 27 L 5 29 L 27 29 L 27 27 Z M 11 23 C 11.5625 23 12 23.4375 12 24 C 12 24.5625 11.5625 25 11 25 C 10.4375 25 10 24.5625 10 24 C 10 23.4375 10.4375 23 11 23 Z "/>
</g>
</symbol><symbol id="user-groups" viewBox="0 0 32 32">
<g id="surface1">
<path style=" " d="M 11.5 6 C 9.578125 6 8 7.578125 8 9.5 C 8 11.421875 9.578125 13 11.5 13 C 13.421875 13 15 11.421875 15 9.5 C 15 7.578125 13.421875 6 11.5 6 Z M 20.5 6 C 18.578125 6 17 7.578125 17 9.5 C 17 11.421875 18.578125 13 20.5 13 C 22.421875 13 24 11.421875 24 9.5 C 24 7.578125 22.421875 6 20.5 6 Z M 11.5 8 C 12.339844 8 13 8.660156 13 9.5 C 13 10.339844 12.339844 11 11.5 11 C 10.660156 11 10 10.339844 10 9.5 C 10 8.660156 10.660156 8 11.5 8 Z M 20.5 8 C 21.339844 8 22 8.660156 22 9.5 C 22 10.339844 21.339844 11 20.5 11 C 19.660156 11 19 10.339844 19 9.5 C 19 8.660156 19.660156 8 20.5 8 Z M 7 12 C 4.800781 12 3 13.800781 3 16 C 3 17.113281 3.476563 18.117188 4.21875 18.84375 C 2.886719 19.746094 2 21.28125 2 23 L 4 23 C 4 21.332031 5.332031 20 7 20 C 8.667969 20 10 21.332031 10 23 L 12 23 C 12 21.28125 11.113281 19.746094 9.78125 18.84375 C 10.523438 18.117188 11 17.113281 11 16 C 11 13.800781 9.199219 12 7 12 Z M 12 23 C 11.375 23.835938 11 24.886719 11 26 L 13 26 C 13 24.332031 14.332031 23 16 23 C 17.667969 23 19 24.332031 19 26 L 21 26 C 21 24.886719 20.625 23.835938 20 23 C 19.660156 22.546875 19.25 22.160156 18.78125 21.84375 C 19.523438 21.117188 20 20.113281 20 19 C 20 16.800781 18.199219 15 16 15 C 13.800781 15 12 16.800781 12 19 C 12 20.113281 12.476563 21.117188 13.21875 21.84375 C 12.75 22.160156 12.339844 22.546875 12 23 Z M 20 23 L 22 23 C 22 21.332031 23.332031 20 25 20 C 26.667969 20 28 21.332031 28 23 L 30 23 C 30 21.28125 29.113281 19.746094 27.78125 18.84375 C 28.523438 18.117188 29 17.113281 29 16 C 29 13.800781 27.199219 12 25 12 C 22.800781 12 21 13.800781 21 16 C 21 17.113281 21.476563 18.117188 22.21875 18.84375 C 20.886719 19.746094 20 21.28125 20 23 Z M 7 14 C 8.117188 14 9 14.882813 9 16 C 9 17.117188 8.117188 18 7 18 C 5.882813 18 5 17.117188 5 16 C 5 14.882813 5.882813 14 7 14 Z M 25 14 C 26.117188 14 27 14.882813 27 16 C 27 17.117188 26.117188 18 25 18 C 23.882813 18 23 17.117188 23 16 C 23 14.882813 23.882813 14 25 14 Z M 16 17 C 17.117188 17 18 17.882813 18 19 C 18 20.117188 17.117188 21 16 21 C 14.882813 21 14 20.117188 14 19 C 14 17.882813 14.882813 17 16 17 Z "/>
</g>
</symbol><symbol id="virus" viewBox="0 0 32 32">
<g id="surface1">
<path style=" " d="M 16 4 C 14.894531 4 14 4.894531 14 6 C 14 6.738281 14.402344 7.371094 15 7.71875 L 15 8.0625 C 13.195313 8.289063 11.570313 9.117188 10.34375 10.34375 L 8.96875 9.28125 C 8.980469 9.1875 9 9.097656 9 9 C 9 7.894531 8.105469 7 7 7 C 5.894531 7 5 7.894531 5 9 C 5 10.105469 5.894531 11 7 11 C 7.265625 11 7.519531 10.9375 7.75 10.84375 L 9.125 11.90625 C 8.410156 13.105469 8 14.507813 8 16 C 8 16.09375 7.996094 16.1875 8 16.28125 C 7.707031 16.109375 7.363281 16 7 16 C 5.894531 16 5 16.894531 5 18 C 5 19.105469 5.894531 20 7 20 C 7.691406 20 8.296875 19.65625 8.65625 19.125 C 8.925781 19.753906 9.273438 20.371094 9.6875 20.90625 L 8.5 22.0625 C 8.339844 22.019531 8.171875 22 8 22 C 6.894531 22 6 22.894531 6 24 C 6 25.105469 6.894531 26 8 26 C 9.105469 26 10 25.105469 10 24 C 10 23.828125 9.980469 23.660156 9.9375 23.5 L 11.09375 22.3125 C 11.832031 22.882813 12.6875 23.304688 13.59375 23.59375 C 13.230469 23.957031 13 24.449219 13 25 C 13 26.105469 13.894531 27 15 27 C 16.105469 27 17 26.105469 17 25 C 17 24.625 16.898438 24.269531 16.71875 23.96875 C 17.546875 23.894531 18.324219 23.683594 19.0625 23.375 L 20.21875 25.125 C 20.089844 25.390625 20 25.683594 20 26 C 20 27.105469 20.894531 28 22 28 C 23.105469 28 24 27.105469 24 26 C 24 24.894531 23.105469 24 22 24 C 21.957031 24 21.917969 23.996094 21.875 24 L 20.78125 22.375 C 21.683594 21.699219 22.449219 20.867188 23 19.875 L 24.03125 20.28125 C 24.167969 21.253906 24.992188 22 26 22 C 27.105469 22 28 21.105469 28 20 C 28 18.894531 27.105469 18 26 18 C 25.539063 18 25.121094 18.171875 24.78125 18.4375 L 23.71875 18 C 23.824219 17.589844 23.929688 17.179688 23.96875 16.75 C 24.585938 16.410156 25 15.753906 25 15 C 25 14.03125 24.316406 13.21875 23.40625 13.03125 C 23.222656 12.574219 22.980469 12.128906 22.71875 11.71875 L 23.5 10.9375 C 23.660156 10.980469 23.828125 11 24 11 C 25.105469 11 26 10.105469 26 9 C 26 7.894531 25.105469 7 24 7 C 22.894531 7 22 7.894531 22 9 C 22 9.171875 22.019531 9.339844 22.0625 9.5 L 21.4375 10.125 C 20.242188 9.019531 18.691406 8.277344 17 8.0625 L 17 7.71875 C 17.597656 7.371094 18 6.738281 18 6 C 18 4.894531 17.105469 4 16 4 Z M 16 10 C 19.324219 10 22 12.675781 22 16 C 22 19.324219 19.324219 22 16 22 C 12.675781 22 10 19.324219 10 16 C 10 12.675781 12.675781 10 16 10 Z M 14 13 C 13.449219 13 13 13.449219 13 14 C 13 14.550781 13.449219 15 14 15 C 14.550781 15 15 14.550781 15 14 C 15 13.449219 14.550781 13 14 13 Z M 19 15 C 17.894531 15 17 15.894531 17 17 C 17 18.105469 17.894531 19 19 19 C 20.105469 19 21 18.105469 21 17 C 21 15.894531 20.105469 15 19 15 Z M 15 18 C 14.449219 18 14 18.449219 14 19 C 14 19.550781 14.449219 20 15 20 C 15.550781 20 16 19.550781 16 19 C 16 18.449219 15.550781 18 15 18 Z "/>
</g>
</symbol></svg>