<?xml version="1.0" encoding="UTF-8"?><svg xmlns="http://www.w3.org/2000/svg" xmlns:xlink="http://www.w3.org/1999/xlink"><symbol viewBox="0 0 32 32" id="aids-ribbon" xmlns="http://www.w3.org/2000/svg"><path d="M16 4c-2.164 0-3.656.719-3.656.719l-.219.093-.156.22s-1.371 1.917-1.938 4.78L10 9.906V10c0 .457.078 1.3.375 2.563a22.029 22.029 0 0 0 1.688 4.687c1.761 3.578 5.015 7.824 10.812 11.125l1.094.625.375-1.219 1.625-5.5.218-.812-.75-.375c-2.328-1.11-4.093-2.45-5.562-3.844.73-1.625 1.355-3.219 1.656-4.406.36-1.422.469-2.317.469-2.844v-.094l-.031-.094c-.567-2.863-1.938-4.78-1.938-4.78l-.156-.22-.219-.093S18.164 4 16 4zm0 2c.805 0 1.422.11 1.844.219-.04.285-.082.605-.157.968a8.428 8.428 0 0 0-3.375-.03c-.05-.31-.07-.598-.093-.845C14.672 6.16 14.883 6 16 6zm-3.344 2.219c.828 3.816 3.29 10.148 11.156 14.25l-1.03 3.437c-4.692-2.968-7.415-6.535-8.907-9.562-.809-1.637-1.297-3.117-1.563-4.25-.257-1.098-.308-1.856-.312-2.031.16-.762.43-1.282.656-1.844zm6.813.125c.187.496.386 1.043.531 1.719-.004.109-.086 1.046-.406 2.312-.223.89-.766 2.121-1.25 3.313a19.549 19.549 0 0 1-1.157-1.563 22.157 22.157 0 0 0 2.282-5.781zM16 9c.418 0 .824.043 1.219.125a20.538 20.538 0 0 1-1.219 3c-.55-1.082-.984-2.09-1.25-3A6.004 6.004 0 0 1 16 9zm-4.969 9.469c-1.219.976-2.574 1.722-4.469 2.625l-.75.375L8.033 29l1.093-.625c2.668-1.52 4.36-2.871 5.781-4.406-.469-.508-.91-1.02-1.312-1.532C12.457 23.7 11.16 24.802 9.219 26l-1.031-3.469c1.515-.746 2.73-1.426 3.843-2.281-.375-.594-.699-1.207-1-1.781z"/></symbol><symbol viewBox="0 0 32 32" id="ambulance" xmlns="http://www.w3.org/2000/svg"><path d="M18 3c-1.105 0-2 .895-2 2v1H1v19h3.156c.446 1.719 1.992 3 3.844 3 1.852 0 3.398-1.281 3.844-3h8.312c.446 1.719 1.992 3 3.844 3 1.852 0 3.398-1.281 3.844-3H31V13.625l-.25-.281-6-7L24.469 6H20V5c0-1.105-.895-2-2-2zM3 8h20.531L29 14.375V23h-1.156c-.446-1.719-1.992-3-3.844-3-1.852 0-3.398 1.281-3.844 3h-8.312c-.446-1.719-1.992-3-3.844-3-1.852 0-3.398 1.281-3.844 3H3zm11 3v3h-3v2h3v3h2v-3h3v-2h-3v-3zM8 22c1.117 0 2 .883 2 2s-.883 2-2 2-2-.883-2-2 .883-2 2-2zm16 0c1.117 0 2 .883 2 2s-.883 2-2 2-2-.883-2-2 .883-2 2-2z"/></symbol><symbol viewBox="0 0 32 32" id="ask-question" xmlns="http://www.w3.org/2000/svg"><path d="M3 4v18h5v5.094l1.625-1.313L14.344 22H29V4zm2 2h22v14H13.656l-.281.219L10 22.906V20H5zm11 2c-2.2 0-3 1.8-3 3h2c0-.5.2-1 1-1s1 .5 1 1-.512.805-.813.906H16c-.602.2-1 .801-1 1.5V15h2v-1.313c1-.398 2-1.386 2-2.687 0-1.2-.8-3-3-3zm-1 8v2h2v-2z"/></symbol><symbol viewBox="0 0 32 32" id="back" xmlns="http://www.w3.org/2000/svg"><path d="M19.031 4.281l-11 11-.687.719.687.719 11 11 1.438-1.438L10.187 16 20.47 5.719z"/></symbol><symbol viewBox="0 0 32 32" id="back-arrow" xmlns="http://www.w3.org/2000/svg"><path d="M16 3C8.832 3 3 8.832 3 16s5.832 13 13 13 13-5.832 13-13S23.168 3 16 3zm0 2c6.086 0 11 4.914 11 11s-4.914 11-11 11S5 22.086 5 16 9.914 5 16 5zm-.719 4.594L8.875 16l6.406 6.406L16.72 21l-4-4H23v-2H12.719l4-4z"/></symbol><symbol viewBox="0 0 32 32" id="box-important" xmlns="http://www.w3.org/2000/svg"><path d="M16 3C8.832 3 3 8.832 3 16s5.832 13 13 13 13-5.832 13-13S23.168 3 16 3zm0 2c6.086 0 11 4.914 11 11s-4.914 11-11 11S5 22.086 5 16 9.914 5 16 5zm-1 5v8h2v-8zm0 10v2h2v-2z"/></symbol><symbol viewBox="0 0 32 32" id="cell-phone" xmlns="http://www.w3.org/2000/svg"><path d="M9 2v23c0 .523.184 1.059.563 1.438.378.378.914.562 1.437.562h10c.523 0 1.059-.184 1.438-.563.378-.378.562-.914.562-1.437V7c0-.523-.184-1.059-.563-1.438C22.06 5.184 21.523 5 21 5H11V2zm2 5h10v4H11zm0 6h10v12H11zm1 2v2h2v-2zm3 0v2h2v-2zm3 0v2h2v-2zm-6 3v2h2v-2zm3 0v2h2v-2zm3 0v2h2v-2zm-6 3v2h2v-2zm3 0v2h2v-2zm3 0v2h2v-2z"/></symbol><symbol viewBox="0 0 32 32" id="chat" xmlns="http://www.w3.org/2000/svg"><path d="M2 5v16h4v5.094l1.625-1.313L12.344 21H22V5zm2 2h16v12h-8.344l-.281.219L8 21.906V19H4zm20 2v2h4v12h-4v2.906L20.344 23h-7.5l-2.5 2h9.312L26 30.094V25h4V9z"/></symbol><symbol viewBox="0 0 32 32" id="chat-bubble" xmlns="http://www.w3.org/2000/svg"><path d="M3 5v18h5v5.078L14.352 23H29V5zm2 2h22v14H13.648L10 23.918V21H5zm5 5a1.999 1.999 0 1 0 0 4 1.999 1.999 0 1 0 0-4zm6 0a1.999 1.999 0 1 0 0 4 1.999 1.999 0 1 0 0-4zm6 0a1.999 1.999 0 1 0 0 4 1.999 1.999 0 1 0 0-4z"/></symbol><symbol viewBox="0 0 32 32" id="combo-chart" xmlns="http://www.w3.org/2000/svg"><path d="M27.219 4.375l-3.407 4.25-3.218-2.438-.782-.562-.593.75-3.5 4.375-3.281-1.656-.782-.375-.5.719-3.406 5.124-3.156-2.374-1.188 1.624 4 3 .844.625.594-.875 3.5-5.25 3.219 1.594.718.344.5-.625 3.407-4.25 3.218 2.438.782.562.593-.75 4-5zM27 12v16h2V12zm-8 3v13h2V15zm-8 1v12h2V16zm12 1v11h2V17zM3 18v10h2V18zm12 0v10h2V18zm-8 3v7h2v-7z"/></symbol><symbol viewBox="0 0 32 32" id="communicate" xmlns="http://www.w3.org/2000/svg"><path d="M17 5v10h2v2.875l1.563-1.031L23.313 15H30V5zm2 2h9v6h-5.313l-.25.156-1.437.969V13h-2zm-9 1c-3.3 0-6 2.7-6 6 0 1.984.977 3.75 2.469 4.844C3.832 20.152 2 22.864 2 26h2c0-3.324 2.676-6 6-6s6 2.676 6 6h2c0-3.137-1.832-5.848-4.469-7.156A6.006 6.006 0 0 0 16 14c0-3.3-2.7-6-6-6zm0 2c2.223 0 4 1.777 4 4s-1.777 4-4 4-4-1.777-4-4 1.777-4 4-4z"/></symbol><symbol viewBox="0 0 32 32" id="condom-used" xmlns="http://www.w3.org/2000/svg"><path d="M16 3c-1.523 0-2.695 1.207-2.875 2.688C10.707 6.788 9 9.175 9 12v14h2V12a5.011 5.011 0 0 1 3.344-4.719L15 7.063V6c0-.566.434-1 1-1 .566 0 1 .434 1 1v1.063l.656.218C19.594 7.97 21 9.816 21 12v15H8v2h16v-2h-1V12c0-2.824-1.707-5.21-4.125-6.313C18.695 4.207 17.523 3 16 3zm0 8c-1.105 0-2 .96-2 2.344 0 2.054 1.14 1.972 1.625 4.219.363 1.675-.773 1.89-.344 3.218C15.63 21.848 17.312 23 17.312 23s-.503-1.086-.812-2.094c-.258-.847.867-1.758.656-3.187-.308-2.106.844-2.254.844-4.375C18 11.96 17.105 11 16 11z"/></symbol><symbol viewBox="0 0 32 32" id="connect" xmlns="http://www.w3.org/2000/svg"><path d="M23 5c-2.2 0-4 1.8-4 4 0 .777.234 1.5.625 2.117L16.52 15h-4.665c-.449-1.715-2.003-3-3.855-3-2.2 0-4 1.8-4 4s1.8 4 4 4c1.852 0 3.406-1.285 3.855-3h4.665l3.105 3.883A3.946 3.946 0 0 0 19 23c0 2.2 1.8 4 4 4s4-1.8 4-4-1.8-4-4-4a3.92 3.92 0 0 0-1.91.512L18.28 16l2.809-3.512A3.92 3.92 0 0 0 23 13c2.2 0 4-1.8 4-4s-1.8-4-4-4zm0 2c1.117 0 2 .883 2 2s-.883 2-2 2-2-.883-2-2 .883-2 2-2zM8 14c1.117 0 2 .883 2 2s-.883 2-2 2-2-.883-2-2 .883-2 2-2zm15 7c1.117 0 2 .883 2 2s-.883 2-2 2-2-.883-2-2 .883-2 2-2z"/></symbol><symbol viewBox="0 0 32 32" id="download" xmlns="http://www.w3.org/2000/svg"><path d="M15 4v16.563L9.719 15.28 8.28 16.72l7 7 .719.687.719-.687 7-7-1.438-1.438L17 20.562V4zM7 26v2h18v-2z"/></symbol><symbol viewBox="0 0 32 32" id="exchange" xmlns="http://www.w3.org/2000/svg"><path d="M9 4C6.25 4 4 6.25 4 9c0 1.516.707 2.863 1.781 3.781A7.005 7.005 0 0 0 2 19h2c0-2.773 2.227-5 5-5s5 2.227 5 5h2c0-2.7-1.531-5.05-3.781-6.219C13.293 11.863 14 10.516 14 9c0-2.75-2.25-5-5-5zm7 15h2c0-2.773 2.227-5 5-5s5 2.227 5 5h2c0-2.7-1.531-5.05-3.781-6.219C27.293 11.863 28 10.516 28 9c0-2.75-2.25-5-5-5s-5 2.25-5 5c0 1.516.707 2.863 1.781 3.781A7.005 7.005 0 0 0 16 19zM9 6c1.668 0 3 1.332 3 3s-1.332 3-3 3-3-1.332-3-3 1.332-3 3-3zm14 0c1.668 0 3 1.332 3 3s-1.332 3-3 3-3-1.332-3-3 1.332-3 3-3zM6.281 20.281l-3 3-.687.719.687.719 3 3L7.72 26.28 6.437 25H11v-2H6.437l1.282-1.281zm19.438 0L24.28 21.72 25.563 23H21v2h4.563l-1.282 1.281 1.438 1.438 3-3 .687-.719-.687-.719zM13 23v2h2v-2zm4 0v2h2v-2z"/></symbol><symbol viewBox="0 0 32 32" id="external-link" xmlns="http://www.w3.org/2000/svg"><path d="M18 5v2h5.563L11.28 19.281l1.438 1.438L25 8.437V14h2V5zM5 9v18h18V14l-2 2v9H7V11h9l2-2z"/></symbol><symbol viewBox="0 0 32 32" id="family" xmlns="http://www.w3.org/2000/svg"><path d="M9 6c-2.75 0-5 2.25-5 5 0 1.516.707 2.863 1.781 3.781C3.543 15.953 2 18.316 2 21h2c0-2.754 2.246-5 5-5 1.383 0 2.5.477 3.375 1.344A3.942 3.942 0 0 0 12 19c0 1.113.477 2.117 1.219 2.844A5.041 5.041 0 0 0 11 26h2a3 3 0 0 1 6 0h2a5.041 5.041 0 0 0-2.219-4.156C19.523 21.117 20 20.114 20 19c0-.59-.14-1.148-.375-1.656C20.5 16.477 21.617 16 23 16c2.754 0 5 2.246 5 5h2c0-2.684-1.543-5.047-3.781-6.219C27.293 13.863 28 12.516 28 11c0-2.75-2.25-5-5-5s-5 2.25-5 5c0 1.516.707 2.863 1.781 3.781-.515.27-.976.637-1.406 1.031A3.92 3.92 0 0 0 16 15a3.92 3.92 0 0 0-2.375.813c-.43-.395-.89-.762-1.406-1.032C13.293 13.863 14 12.516 14 11c0-2.75-2.25-5-5-5zm0 2c1.668 0 3 1.332 3 3s-1.332 3-3 3-3-1.332-3-3 1.332-3 3-3zm14 0c1.668 0 3 1.332 3 3s-1.332 3-3 3-3-1.332-3-3 1.332-3 3-3zm-7 9c1.117 0 2 .883 2 2s-.883 2-2 2-2-.883-2-2 .883-2 2-2z"/></symbol><symbol viewBox="0 0 32 32" id="forward" xmlns="http://www.w3.org/2000/svg"><path d="M12.969 4.281L11.53 5.72 21.812 16l-10.28 10.281 1.437 1.438 11-11 .687-.719-.687-.719z"/></symbol><symbol viewBox="0 0 32 32" id="forward-button" xmlns="http://www.w3.org/2000/svg"><path d="M16 3C8.832 3 3 8.832 3 16s5.832 13 13 13 13-5.832 13-13S23.168 3 16 3zm0 2c6.086 0 11 4.914 11 11s-4.914 11-11 11S5 22.086 5 16 9.914 5 16 5zm.719 4.594L15.28 11l4 4H9v2h10.281l-4 4 1.438 1.406L23.125 16z"/></symbol><symbol viewBox="0 0 32 32" id="increase" xmlns="http://www.w3.org/2000/svg"><path d="M22.563 4.219l-.344 1.968 2.031.344-4.281 2.688-1.032-1.094-.625-.656-.718.531-5.125 3.781-.875-.875-.625-.656-.688.563-7.5 6 1.25 1.562 6.782-5.438.874.876.626.593.687-.5 5.063-3.781 1 1.063.562.593.719-.437 5.125-3.219-.532 2.25 1.938.469 1.094-4.625.25-1.032L27.156 5zM27 12v14h2V12zm-4 2v12h2V14zm-4 2v10h2V16zm-4 2v8h2v-8zm-4 2v6h2v-6zm-4 2v4h2v-4zm-4 2v2h2v-2z"/></symbol><symbol viewBox="0 0 32 32" id="inspection" xmlns="http://www.w3.org/2000/svg"><path d="M16 2c-1.258 0-2.152.89-2.594 2H5v25h22V4h-8.406C18.152 2.89 17.258 2 16 2zm0 2c.555 0 1 .445 1 1v1h3v2h-8V6h3V5c0-.555.445-1 1-1zM7 6h3v4h12V6h3v21H7zm14.281 7.281L15 19.562l-3.281-3.28-1.438 1.437 4 4 .719.687.719-.687 7-7z"/></symbol><symbol viewBox="0 0 32 32" id="link" xmlns="http://www.w3.org/2000/svg"><path d="M21.75 4c-1.672 0-3.258.66-4.438 1.844l-1.468 1.468A6.252 6.252 0 0 0 14 11.75c0 .793.152 1.566.438 2.281l1.624-1.625A4.285 4.285 0 0 1 17.25 8.72l1.469-1.469A4.28 4.28 0 0 1 21.75 6c1.137 0 2.195.445 3 1.25a4.274 4.274 0 0 1 0 6.031l-1.469 1.469A4.28 4.28 0 0 1 20.25 16c-.223 0-.441-.023-.656-.063l-1.625 1.626A6.156 6.156 0 0 0 20.25 18c1.672 0 3.258-.66 4.438-1.844l1.468-1.468A6.252 6.252 0 0 0 28 10.25c0-1.672-.66-3.223-1.844-4.406A6.173 6.173 0 0 0 21.75 4zm-2.469 7.281l-8 8 1.438 1.438 8-8zM11.75 14c-1.672 0-3.258.66-4.438 1.844l-1.468 1.469A6.252 6.252 0 0 0 4 21.75c0 1.672.66 3.223 1.844 4.406A6.173 6.173 0 0 0 10.25 28c1.672 0 3.258-.66 4.438-1.844l1.468-1.468A6.252 6.252 0 0 0 18 20.25c0-.793-.152-1.566-.438-2.281l-1.625 1.625a4.285 4.285 0 0 1-1.187 3.687l-1.469 1.469A4.28 4.28 0 0 1 10.25 26a4.208 4.208 0 0 1-3-1.25 4.274 4.274 0 0 1 0-6.031l1.469-1.469A4.28 4.28 0 0 1 11.75 16c.223 0 .441.023.656.063l1.625-1.625A6.156 6.156 0 0 0 11.75 14z"/></symbol><symbol viewBox="0 0 32 32" id="management" xmlns="http://www.w3.org/2000/svg"><path d="M16 5c-3.855 0-7 3.145-7 7 0 2.406 1.23 4.54 3.09 5.797C8.516 19.324 6 22.875 6 27h2a7.988 7.988 0 0 1 5.426-7.574l2.324 2.324L14 27l2 2 2-2-1.75-5.25 2.324-2.324A7.988 7.988 0 0 1 24 27h2c0-4.125-2.516-7.676-6.09-9.203A7.002 7.002 0 0 0 23 12c0-3.855-3.145-7-7-7zm0 2c2.773 0 5 2.227 5 5s-2.227 5-5 5-5-2.227-5-5 2.227-5 5-5zm8 1.07v2.035c1.805.348 3 1.641 3 3.395s-1.195 3.047-3 3.395v2.199c2.797.492 5 2.996 5 5.906h2c0-3.02-1.781-5.71-4.324-7.066C28.113 16.957 29 15.383 29 13.5c0-2.871-2.05-5.027-5-5.43zM8 8.078c-2.91.41-5 2.602-5 5.422 0 1.883.887 3.457 2.324 4.434C2.781 19.289 1 21.98 1 25h2c0-2.91 2.203-5.414 5-5.906v-2.2c-1.805-.347-3-1.64-3-3.394 0-1.723 1.219-3.031 3-3.39z"/></symbol><symbol viewBox="0 0 32 32" id="megaphone" xmlns="http://www.w3.org/2000/svg"><path d="M30 4.656l-1.281.375L5.812 12H2v8h3.813l1.968.594-.031.093v.032c-.64 2.113.547 4.46 2.75 5.125.008.004.023-.004.031 0 2.121.644 4.473-.528 5.125-2.75l.031-.094 13.032 3.969 1.281.375zm-2 2.688v17.312L6.281 18.031 6.156 18H4v-4h2.156l.125-.031zM9.687 21.187l4.094 1.22-.031.093v.031c-.344 1.168-1.586 1.742-2.656 1.407-1.168-.344-1.774-1.555-1.438-2.625v-.032z"/></symbol><symbol viewBox="0 0 32 32" id="microscope" xmlns="http://www.w3.org/2000/svg"><path d="M17 4v2h4V4zm-1 3v2h-2c-2.746 0-5 2.254-5 5v4.188c-1.156.417-2 1.519-2 2.812s.844 2.395 2 2.813V26H7v2h17v-2H11v-2.188A3.016 3.016 0 0 0 12.813 22H24v-2H12.812A3.036 3.036 0 0 0 11 18.187V14a3 3 0 0 1 3-3h2v6h6V7zm2 2h2v6h-2zm-8 11c.563 0 1 .438 1 1 0 .563-.438 1-1 1-.563 0-1-.438-1-1 0-.563.438-1 1-1z"/></symbol><symbol viewBox="0 0 32 32" id="mosquito" xmlns="http://www.w3.org/2000/svg"><path d="M9.063 4.719L7.655 6.156l2.125 2.032L8.75 10.25l.594.5 1.531 1.313c-1.055.246-2.113.39-3.063.53-.882.13-1.66.247-2.375.563-.359.156-.722.367-1 .719A2.116 2.116 0 0 0 4 15.156c0 .66.398 1.192.813 1.531.414.34.898.567 1.437.75.39.133.816.227 1.25.313l-.375 1.156-1.906 2.5 1.562 1.188 2-2.594.125-.125.031-.188L9.5 18c.125.004.25 0 .375 0H10v3.656L7.25 26.5l1.75 1 2.875-5.063.125-.25V17.75c.45-.121.836-.309 1.188-.531A8.958 8.958 0 0 0 13 19c0 1.031.023 2.324.344 3.5.16.59.386 1.172.812 1.656A2.52 2.52 0 0 0 16 25c.73 0 1.418-.36 1.844-.844.426-.484.652-1.066.812-1.656.32-1.176.344-2.469.344-3.5 0-.621-.074-1.227-.188-1.781.344.218.754.375 1.188.5v4.468l.125.25L23 27.5l1.75-1L22 21.656V18h.125c.129 0 .246.004.375 0l.563 1.688.03.187.126.125 2 2.594 1.562-1.188-1.906-2.5-.375-1.156c.434-.086.86-.18 1.25-.313.54-.183 1.023-.41 1.438-.75.414-.34.812-.87.812-1.53 0-.458-.16-.93-.438-1.282-.277-.352-.64-.563-1-.719-.714-.316-1.492-.433-2.375-.562-.949-.14-2.007-.285-3.062-.531l1.531-1.313.594-.5-1.031-2.063 2.125-2.03-1.407-1.438-2.625 2.562-.53.5.312.657.656 1.312L19 11.281v-.562c0-.887-.379-1.707-1-2.156 0-.606-.168-1.391-1-1.532V5h-2v2.063c-.86.144-1 .886-1 1.5-.621.449-1 1.269-1 2.156v.562L11.25 9.75l.656-1.313.313-.656-.531-.5zM16 10c.438 0 .71.082.813.156.101.074.187.125.187.563V12c0 .54 0 1.05.031 1.531-.097.176-.351.469-1.031.469-.723 0-.98-.332-1.063-.5.032-.477.063-.96.063-1.5v-1.281c0-.438.055-.489.156-.563.102-.074.406-.156.844-.156zm-3.25 3.469c-.09.62-.094 1.52-.281 1.781-.344.477-.957.75-2.594.75-1.07 0-2.184-.168-2.969-.438-.39-.136-.707-.296-.843-.406-.036-.027-.051-.02-.063-.031.004-.008.055-.082.219-.156.328-.145 1.02-.281 1.875-.406 1.277-.188 2.957-.52 4.656-1.094zm6.5 0c1.7.574 3.379.906 4.656 1.094.856.124 1.547.261 1.875.406.164.074.215.148.219.156-.012.012-.027.004-.063.031-.136.11-.453.27-.843.406-.785.27-1.899.438-2.969.438-1.637 0-2.25-.273-2.594-.75-.187-.262-.191-1.16-.281-1.781zm-3.594 2.5c.114.011.223.031.344.031.121 0 .23-.02.344-.031.27.672.656 1.886.656 3.031 0 .977-.059 2.18-.281 3-.114.41-.254.703-.375.844-.121.14-.16.156-.344.156-.184 0-.223-.016-.344-.156-.12-.14-.261-.434-.375-.844-.222-.82-.281-2.023-.281-3 0-1.148.387-2.36.656-3.031z"/></symbol><symbol viewBox="0 0 32 32" id="natural-food" xmlns="http://www.w3.org/2000/svg"><path d="M9.5 3.813L9 4.28s-4 3.645-4 8.282c0 5.285 4.719 7.593 4.719 7.593l1.094.532.312-1.188s.258-1.078 1.25-2.219C13.367 16.141 15.008 15 18 15c4.457 0 7.566 2.395 8.531 3.188C25.761 19.265 22.895 23 18 23c-2.23 0-3.723-.484-4.625-.875a10.688 10.688 0 0 1 3.844-1.906c2.57-.692 4.562-.25 4.562-.25l.438-1.938s-.625-.152-1.625-.187-2.387.031-3.907.437c-3.039.817-6.695 3.074-9.062 8.313l1.813.812c.714-1.586 1.535-2.824 2.406-3.812C12.797 24.078 14.954 25 18 25c6.89 0 10.844-6.469 10.844-6.469l.437-.687-.593-.563S24.148 13 18 13c-1.102 0-2.04.164-2.906.406a8.188 8.188 0 0 0-.063-3.187c-.918-4.29-4.906-6.125-4.906-6.125zm.375 2.53c.785.458 2.625 1.65 3.188 4.282.28 1.316.18 2.348 0 3.031-.18.684-.376.938-.376.938-.667.441-1.374.875-1.812 1.375-.105.12-.191.254-.281.375a15.746 15.746 0 0 1-.094-1.75c.016-1.457.156-2.625.156-2.625l-1.969-.281s-.167 1.28-.187 2.874c-.008.692.02 1.461.094 2.22C7.777 15.952 7 14.655 7 12.561c0-2.91 2.148-5.421 2.875-6.218z"/></symbol><symbol viewBox="0 0 32 32" id="notification" xmlns="http://www.w3.org/2000/svg"><path d="M16 3c-1.105 0-2 .895-2 2 0 .086.02.168.031.25C10.574 6.133 8 9.273 8 13v9c0 .566-.434 1-1 1H6v2h7.188A2.95 2.95 0 0 0 13 26c0 1.645 1.355 3 3 3s3-1.355 3-3a2.95 2.95 0 0 0-.188-1H26v-2h-1c-.566 0-1-.434-1-1v-8.719c0-3.758-2.512-7.11-6.031-8.031.011-.082.031-.164.031-.25 0-1.105-.895-2-2-2zm-.438 4c.145-.012.29 0 .438 0h.188C19.453 7.098 22 9.96 22 13.281V22c0 .352.074.684.188 1H9.813A2.95 2.95 0 0 0 10 22v-9a6.005 6.005 0 0 1 5.563-6zM16 25c.563 0 1 .438 1 1 0 .563-.438 1-1 1-.563 0-1-.438-1-1 0-.563.438-1 1-1z"/></symbol><symbol viewBox="0 0 32 32" id="porridge" xmlns="http://www.w3.org/2000/svg"><path d="M24.219 2.938L19.656 11.5a2.853 2.853 0 0 0-1.718-.5c-.649-.633-1.52-1-2.438-1-1.164 0-2.234.59-2.875 1.5A2.943 2.943 0 0 0 11 11a3.016 3.016 0 0 0-2.844 2C6.457 12.895 5 14.29 5 16H3v1c0 .121.152 12 13 12s13-11.879 13-12v-1h-2c0-1.352-.895-2.5-2.125-2.875-.355-1.172-1.422-2.012-2.688-2.094L26 3.875zM15.5 12c.48 0 .938.227 1.219.625l.406.563.656-.157A.837.837 0 0 1 18 13c.55 0 1 .45 1 1h2c0-.55.45-1 1-1s1 .45 1 1v1h1c.55 0 1 .45 1 1H7c0-.55.45-1 1-1 .145 0 .277.04.469.156l.594.344 1.062-.75-.094-.625C10.023 14.082 10 14.047 10 14c0-.55.45-1 1-1 .36 0 .691.207.875.531l.313.563.687-.063 1-.031.156-.813A1.49 1.49 0 0 1 15.5 12zm-2 4c.277 0 .5-.223.5-.5s-.223-.5-.5-.5-.5.223-.5.5.223.5.5.5zm7 0c.277 0 .5-.223.5-.5s-.223-.5-.5-.5-.5.223-.5.5.223.5.5.5zm-5-2c-.277 0-.5.223-.5.5s.223.5.5.5.5-.223.5-.5-.223-.5-.5-.5zM5.094 18h21.843C26.61 20.547 24.88 27 16 27S5.422 20.547 5.094 18z"/></symbol><symbol viewBox="0 0 32 32" id="pregnant" xmlns="http://www.w3.org/2000/svg"><path d="M16 2c-2.2 0-4 1.8-4 4 0 1.145.5 2.176 1.281 2.906a7.012 7.012 0 0 0-1.656 1.688c-1.035 1.465-1.754 3.312-2.281 5.125C8.289 19.344 8 22.906 8 22.906L7.906 24H13v6h2v-6h2v6h2v-6h5.094L24 22.906s-.29-3.562-1.344-7.187c-.527-1.813-1.246-3.66-2.281-5.125a7.012 7.012 0 0 0-1.656-1.688A3.978 3.978 0 0 0 20 6c0-2.2-1.8-4-4-4zm0 2c1.117 0 2 .883 2 2s-.883 2-2 2-2-.883-2-2 .883-2 2-2zm0 6c1.063 0 1.926.621 2.75 1.781.824 1.16 1.477 2.813 1.969 4.5A34.464 34.464 0 0 1 21.875 22h-11.75c.129-1.129.422-3.2 1.156-5.719.492-1.687 1.145-3.34 1.969-4.5C14.074 10.621 14.938 10 16 10zm-1.5 5a1.5 1.5 0 0 0-1.5 1.5c0 1.465 3 3.5 3 3.5s3-1.992 3-3.5a1.5 1.5 0 0 0-3 0 1.5 1.5 0 0 0-1.5-1.5z"/></symbol><symbol viewBox="0 0 32 32" id="receive-cash" xmlns="http://www.w3.org/2000/svg"><path d="M17 4c-2.2 0-4 1.8-4 4 0 1.48.828 2.777 2.031 3.469-.02.176-.031.347-.031.531 0 2.75 2.25 5 5 5s5-2.25 5-5c0-2.45-1.793-4.52-4.125-4.938A3.994 3.994 0 0 0 17 4zm0 2c.813 0 1.496.473 1.813 1.156a5.037 5.037 0 0 0-3.094 2.313C15.289 9.109 15 8.609 15 8c0-1.117.883-2 2-2zm3 3c1.668 0 3 1.332 3 3s-1.332 3-3 3-3-1.332-3-3 1.332-3 3-3zm-8.531 7c-3.196 0-7.438 1.75-7.438 1.75l.75 1.875S9.078 18 11.47 18c.969 0 2.62.594 3.969 1.281.671.344 1.273.703 1.718 1 .223.149.41.282.532.375.058.047.101.102.125.125l.156.219a.753.753 0 0 1-.094.688.76.76 0 0 1-.844.28H17l-4.344-2.093-.844 1.813 4.438 2.125h.031l.063.03a2.746 2.746 0 0 0 3.156-1c.398-.566.516-1.23.438-1.874l4.812-.813c.531-.09 1.02.242 1.188.75.18.54-.075 1.086-.594 1.313-1.465.644-3.82 1.61-5.938 2.406-1.058.398-2.07.75-2.843 1-.387.125-.723.219-.97.281-.245.063-.445.094-.343.094.063 0-.34-.09-.813-.344a28.847 28.847 0 0 1-1.656-1c-.59-.375-1.199-.754-1.781-1.062-.582-.309-1.105-.594-1.813-.594-1.636 0-3.093.625-3.093.625l.781 1.844S8.098 25 9.188 25c-.028 0 .398.09.874.344.477.254 1.067.625 1.657 1 .59.375 1.18.754 1.75 1.062.57.309 1.07.594 1.781.594.34 0 .535-.074.844-.156.308-.082.683-.18 1.093-.313.82-.265 1.829-.625 2.907-1.031 2.152-.809 4.539-1.766 6.062-2.438 1.446-.636 2.188-2.316 1.688-3.812a3.104 3.104 0 0 0-3.438-2.063l-5.468.907c-.004-.004-.024.004-.032 0-.031-.024-.062-.07-.093-.094l-.282-.219v.032c-.086-.063-.148-.122-.25-.188a20.468 20.468 0 0 0-1.937-1.125c-1.489-.758-3.235-1.5-4.875-1.5z"/></symbol><symbol viewBox="0 0 32 32" id="safety-collection-place" xmlns="http://www.w3.org/2000/svg"><path d="M5.719 4.281L4.28 5.72l2.5 2.5L5 10h5V5L8.219 6.781zm20.562 0l-2.5 2.5L22 5v5h5l-1.781-1.781 2.5-2.5zM16 10c-2.2 0-4 1.8-4 4 0 1.113.477 2.117 1.219 2.844-.364.246-.68.543-.969.875a4.098 4.098 0 0 0-.875-.907A2.976 2.976 0 0 0 12 15c0-1.645-1.355-3-3-3s-3 1.355-3 3c0 .68.238 1.309.625 1.813C5.652 17.543 5 18.698 5 20h2c0-1.117.883-2 2-2s2 .883 2 2v1h2c0-1.668 1.332-3 3-3s3 1.332 3 3h2v-1c0-1.117.883-2 2-2s2 .883 2 2h2c0-1.3-.652-2.457-1.625-3.188A2.976 2.976 0 0 0 26 15c0-1.645-1.355-3-3-3s-3 1.355-3 3c0 .68.238 1.309.625 1.813a4.278 4.278 0 0 0-.875.906 5.025 5.025 0 0 0-.969-.875C19.523 16.117 20 15.114 20 14c0-2.2-1.8-4-4-4zm0 2c1.117 0 2 .883 2 2s-.883 2-2 2-2-.883-2-2 .883-2 2-2zm-7 2c.563 0 1 .438 1 1 0 .563-.438 1-1 1-.563 0-1-.438-1-1 0-.563.438-1 1-1zm14 0c.563 0 1 .438 1 1 0 .563-.438 1-1 1-.563 0-1-.438-1-1 0-.563.438-1 1-1zM5 22l1.781 1.781-2.5 2.5L5.72 27.72l2.5-2.5L10 27v-5zm17 0v5l1.781-1.781 2.5 2.5 1.438-1.438-2.5-2.5L27 22z"/></symbol><symbol viewBox="0 0 32 32" id="schedule" xmlns="http://www.w3.org/2000/svg"><path d="M10 3c-4.406 0-8 3.594-8 8 0 2.95 1.613 5.52 4 6.906V27h22V7h-5V6h-2v1h-4.094C15.52 4.613 12.95 3 10 3zm0 2c3.324 0 6 2.676 6 6s-2.676 6-6 6-6-2.676-6-6 2.676-6 6-6zM9 7v4.563L7.281 13.28 8.72 14.72l2-2 .281-.313V7zm8.719 2H21v1h2V9h3v2h-8c0-.695-.113-1.355-.281-2zm0 4H26v12H8v-6.281A7.873 7.873 0 0 0 10 19c3.71 0 6.82-2.563 7.719-6zM18 17v2h2v-2zm4 0v2h2v-2zm-12 4v2h2v-2zm4 0v2h2v-2zm4 0v2h2v-2zm4 0v2h2v-2z"/></symbol><symbol viewBox="0 0 32 32" id="search-property" xmlns="http://www.w3.org/2000/svg"><path d="M4 5v22h15.469l.656-.656A7.2 7.2 0 0 1 19.656 25H6V11h20v5.531c.164-.011.332-.031.5-.031.516 0 1.016.05 1.5.156V5zm2 2h20v2H6zm3 6v2h2v-2zm4 0v2h10v-2zm-4 4v2h2v-2zm4 0v2h7.5a7.625 7.625 0 0 1 2.281-2zm13.5 1a5.513 5.513 0 0 0-5.5 5.5c0 1.148.36 2.207.969 3.094L18.28 30.28l1.438 1.438 3.687-3.688c.887.61 1.946.969 3.094.969 3.027 0 5.5-2.473 5.5-5.5S29.527 18 26.5 18zm0 2c1.945 0 3.5 1.555 3.5 3.5S28.445 27 26.5 27a3.484 3.484 0 0 1-3.5-3.5c0-1.945 1.555-3.5 3.5-3.5zM9 21v2h2v-2zm4 0v2h6.031c.047-.695.18-1.367.407-2z"/></symbol><symbol viewBox="0 0 32 32" id="siren" xmlns="http://www.w3.org/2000/svg"><path d="M15 4v4h2V4zM7.5 7.094L6.094 8.5l2.843 2.844 1.407-1.406zm17 0l-2.844 2.843 1.407 1.407L25.905 8.5zM13.625 10a3 3 0 0 0-2.938 2.406L8.188 25H6v2h20v-2h-2.188l-2.5-12.594A3.002 3.002 0 0 0 18.375 10zm0 2h4.75c.48 0 .875.34.969.813L21.78 25H10.22l2.437-12.188a.984.984 0 0 1 .969-.812zM3 16v2h4v-2zm22 0v2h4v-2z"/></symbol><symbol viewBox="0 0 32 32" id="syringe" xmlns="http://www.w3.org/2000/svg"><path d="M23.219 3.781L21.78 5.22l.375.375-2.281 2.281 1.406 1.438L23.563 7 25 8.438l-2.313 2.28 1.438 1.407 2.281-2.281.375.375L28.22 8.78zm-5.5 3.5L16.28 8.72l.657.656L7 19.344l-.344.343.063.47.343 3.187.032.343.093.063L3.938 27h2.844l2.032-2.031 3.03.312.47.063.343-.344 9.969-9.938.656.657 1.438-1.438zm.656 3.532l2.813 2.812-9.594 9.625-2.375-.281-.188-.188-.281-2.375z"/></symbol><symbol viewBox="0 0 32 32" id="trolley" xmlns="http://www.w3.org/2000/svg"><path d="M18.594 1.656L17.656 2l-5.531 2.031-.938.344.344.938 1.688 4.562.344.938.937-.344 5.531-2.031.938-.344-.344-.938-1.688-4.562zM8.594 3l-.938.344L5 4.313l.656 1.875 1.75-.625 6.657 17.78.343.938.938-.343 10.625-4-.688-1.875-9.687 3.656L8.938 3.937zm8.812 1.219l1 2.687L14.75 8.25l-1-2.688zm4.375 5.687l-.937.344-5.532 2.031-.937.344.344.938 1.687 4.562.344.938.938-.344 5.53-2.032.938-.343-.343-.969-1.688-4.531zm-1.187 2.563l1 2.687-3.657 1.344-1-2.688zM11 21c-1.645 0-3 1.355-3 3s1.355 3 3 3 3-1.355 3-3-1.355-3-3-3zm0 6H5v2h22v-2zm0-4c.563 0 1 .438 1 1 0 .563-.438 1-1 1-.563 0-1-.438-1-1 0-.563.438-1 1-1z"/></symbol><symbol viewBox="0 0 32 32" id="up-down-arrow" xmlns="http://www.w3.org/2000/svg"><path d="M9 4.094l-6.719 6.718L3.72 12.22 8 7.938V20h2V7.937l4.281 4.282 1.438-1.406zM22 5v2h2V5zm0 4v2h2V9zm0 4v12.063l-4.281-4.282-1.438 1.407L23 28.905l6.719-6.718-1.438-1.407L24 25.063V13zM8 22v2h2v-2zm0 4v2h2v-2z"/></symbol><symbol viewBox="0 0 32 32" id="user-groups" xmlns="http://www.w3.org/2000/svg"><path d="M11.5 6A3.514 3.514 0 0 0 8 9.5c0 1.922 1.578 3.5 3.5 3.5S15 11.422 15 9.5 13.422 6 11.5 6zm9 0A3.514 3.514 0 0 0 17 9.5c0 1.922 1.578 3.5 3.5 3.5S24 11.422 24 9.5 22.422 6 20.5 6zm-9 2c.84 0 1.5.66 1.5 1.5s-.66 1.5-1.5 1.5-1.5-.66-1.5-1.5.66-1.5 1.5-1.5zm9 0c.84 0 1.5.66 1.5 1.5s-.66 1.5-1.5 1.5-1.5-.66-1.5-1.5.66-1.5 1.5-1.5zM7 12c-2.2 0-4 1.8-4 4 0 1.113.477 2.117 1.219 2.844A5.036 5.036 0 0 0 2 23h2c0-1.668 1.332-3 3-3s3 1.332 3 3h2a5.036 5.036 0 0 0-2.219-4.156C10.523 18.117 11 17.114 11 16c0-2.2-1.8-4-4-4zm5 11c-.625.836-1 1.887-1 3h2c0-1.668 1.332-3 3-3s3 1.332 3 3h2a5.024 5.024 0 0 0-1-3c-.34-.453-.75-.84-1.219-1.156C19.523 21.117 20 20.114 20 19c0-2.2-1.8-4-4-4s-4 1.8-4 4c0 1.113.477 2.117 1.219 2.844A5.042 5.042 0 0 0 12 23zm8 0h2c0-1.668 1.332-3 3-3s3 1.332 3 3h2a5.036 5.036 0 0 0-2.219-4.156C28.523 18.117 29 17.114 29 16c0-2.2-1.8-4-4-4s-4 1.8-4 4c0 1.113.477 2.117 1.219 2.844A5.036 5.036 0 0 0 20 23zM7 14c1.117 0 2 .883 2 2s-.883 2-2 2-2-.883-2-2 .883-2 2-2zm18 0c1.117 0 2 .883 2 2s-.883 2-2 2-2-.883-2-2 .883-2 2-2zm-9 3c1.117 0 2 .883 2 2s-.883 2-2 2-2-.883-2-2 .883-2 2-2z"/></symbol><symbol viewBox="0 0 32 32" id="virus" xmlns="http://www.w3.org/2000/svg"><path d="M16 4c-1.105 0-2 .895-2 2 0 .738.402 1.371 1 1.719v.343a7.992 7.992 0 0 0-4.656 2.282L8.969 9.28C8.98 9.187 9 9.098 9 9a1.999 1.999 0 1 0-4 0c0 1.105.895 2 2 2 .266 0 .52-.063.75-.156l1.375 1.062A7.976 7.976 0 0 0 8 16c0 .094-.004.188 0 .281A1.984 1.984 0 0 0 7 16a1.999 1.999 0 1 0 0 4c.691 0 1.297-.344 1.656-.875a8.24 8.24 0 0 0 1.031 1.781L8.5 22.063A1.999 1.999 0 0 0 6 24c0 1.104.895 1.999 2 1.999a1.999 1.999 0 0 0 1.938-2.5l1.156-1.188c.738.57 1.594.993 2.5 1.282A1.982 1.982 0 0 0 13 25a1.999 1.999 0 1 0 4 0c0-.375-.102-.73-.281-1.031a7.863 7.863 0 0 0 2.343-.594l1.157 1.75A2 2 0 0 0 20 26a1.999 1.999 0 1 0 4 0c0-1.105-.895-2-2-2-.043 0-.082-.004-.125 0l-1.094-1.625c.903-.676 1.668-1.508 2.219-2.5l1.031.406C24.168 21.254 24.992 22 26 22a1.999 1.999 0 1 0 0-4c-.46 0-.879.172-1.219.438L23.72 18c.105-.41.21-.82.25-1.25a2.008 2.008 0 0 0-.563-3.719 8.062 8.062 0 0 0-.687-1.312l.781-.781A1.999 1.999 0 0 0 26 9a1.999 1.999 0 1 0-3.938.5l-.625.625A8.04 8.04 0 0 0 17 8.062V7.72c.598-.348 1-.98 1-1.719 0-1.105-.895-2-2-2zm0 6c3.324 0 6 2.676 6 6s-2.676 6-6 6-6-2.676-6-6 2.676-6 6-6zm-2 3c-.55 0-1 .45-1 1s.45 1 1 1 1-.45 1-1-.45-1-1-1zm5 2a1.999 1.999 0 1 0 0 4 1.999 1.999 0 1 0 0-4zm-4 3c-.55 0-1 .45-1 1s.45 1 1 1 1-.45 1-1-.45-1-1-1z"/></symbol></svg>